<svg width="16" height="16" viewBox="0 0 16 16" fill="none" xmlns="http://www.w3.org/2000/svg">
<path d="M8 0C3.582 0 0 3.582 0 8C0 12.418 3.582 16 8 16C12.418 16 16 12.418 16 8C16 3.582 12.418 0 8 0ZM14.8 9.5C14.8 10 14.1 10.16 12.8 10.5C12.924 9.911 13.006 9.223 13.029 8.52L15.03 8.5C15.03 8.86 14.95 9 14.87 9.5H14.8ZM1.2 9.5C1.1 9 1.05 8.86 1 8.5H3C3.024 9.223 3.106 9.911 3.244 10.579C1.9 10.16 1.2 10 1.2 9.5ZM1.2 6.5C1.2 6 1.9 5.84 3.2 5.5C3.085 6.094 3.013 6.784 3 7.489L1 7.5C1 7.14 1.08 7 1.16 6.5H1.2ZM8.5 5C9.63 5.013 10.726 5.107 11.798 5.277C11.845 5.92 11.963 6.687 11.999 7.476L8.5 7.501V5.001V5ZM8.5 4V1.06C9.67 1.33 10.7 2.53 11.34 4.21C10.504 4.094 9.521 4.018 8.523 4H8.5ZM7.5 1.06V4C6.483 4.015 5.499 4.087 4.532 4.214C5.3 2.53 6.33 1.33 7.5 1.06ZM7.5 5V7.5H4C4.031 6.694 4.142 5.929 4.326 5.193C5.258 5.113 6.361 5.016 7.484 5H7.5ZM4 8.5H7.5V11C6.37 10.987 5.274 10.893 4.202 10.723C4.155 10.08 4.037 9.313 4.001 8.524L4 8.5ZM7.5 12V14.94C6.33 14.67 5.3 13.47 4.66 11.79C5.496 11.906 6.479 11.982 7.477 12H7.5ZM8.5 14.94V12C9.517 11.985 10.501 11.913 11.468 11.786C10.7 13.47 9.67 14.67 8.5 14.94ZM8.5 11V8.5H12C11.969 9.306 11.858 10.071 11.674 10.807C10.742 10.887 9.639 10.984 8.516 11H8.5ZM15 7.5H13C12.976 6.777 12.894 6.089 12.756 5.421C14.11 5.82 14.77 5.98 14.77 6.5C14.9 7 14.95 7.14 15 7.5ZM14.3 4.91C13.794 4.706 13.194 4.53 12.574 4.41C12.213 3.391 11.765 2.512 11.185 1.738C12.54 2.464 13.598 3.549 14.252 4.869L14.3 4.91ZM4.84 1.76C4.272 2.512 3.821 3.391 3.535 4.341C2.836 4.53 2.236 4.706 1.661 4.934C2.412 3.544 3.484 2.459 4.8 1.778L4.84 1.76ZM1.73 11.09C2.236 11.294 2.836 11.47 3.456 11.59C3.817 12.609 4.265 13.488 4.845 14.262C3.478 13.54 2.409 12.455 1.748 11.131L1.73 11.09ZM11.17 14.24C11.734 13.487 12.182 12.609 12.465 11.659C13.164 11.47 13.764 11.294 14.339 11.066C13.588 12.456 12.516 13.541 11.2 14.222L11.17 14.24Z" fill="#1C2E45" fill-opacity="0.6"/>
</svg>
