<svg width="40" height="40" viewBox="0 0 40 40" fill="none" xmlns="http://www.w3.org/2000/svg">
<g clip-path="url(#clip0_272_3782)">
<path d="M18.3175 0.834114L0.835912 18.301C0.612433 18.5237 0.435115 18.7884 0.314127 19.0798C0.193139 19.3712 0.130859 19.6836 0.130859 19.9991C0.130859 20.3146 0.193139 20.627 0.314127 20.9184C0.435115 21.2099 0.612433 21.4745 0.835912 21.6972L18.3175 39.1641C18.5405 39.3873 18.8053 39.5643 19.0967 39.6851C19.3882 39.8059 19.7006 39.8681 20.0161 39.8681C20.3316 39.8681 20.644 39.8059 20.9354 39.6851C21.2269 39.5643 21.4917 39.3873 21.7147 39.1641L29.045 31.84C29.245 31.6401 29.4036 31.4027 29.5119 31.1414C29.6201 30.8801 29.6758 30.6001 29.6758 30.3172C29.6758 30.0344 29.6201 29.7544 29.5119 29.4931C29.4036 29.2318 29.245 28.9944 29.045 28.7944C28.6407 28.3904 28.0925 28.1635 27.5209 28.1635C26.9494 28.1635 26.4012 28.3904 25.9969 28.7944L20.4406 34.346C20.2062 34.5804 19.8506 34.5804 19.6175 34.346L5.65654 20.3982C5.4231 20.1638 5.4231 19.8088 5.65654 19.5757L19.6175 5.62661C19.8506 5.39349 20.2059 5.39349 20.4403 5.62661L25.9969 11.1782C26.4012 11.5822 26.9494 11.8091 27.5209 11.8091C28.0925 11.8091 28.6407 11.5822 29.045 11.1782C29.245 10.9782 29.4036 10.7408 29.5119 10.4795C29.6201 10.2182 29.6758 9.93818 29.6758 9.65536C29.6758 9.37255 29.6201 9.0925 29.5119 8.83121C29.4036 8.56993 29.245 8.33252 29.045 8.13255L21.7159 0.809739C20.7722 -0.108386 19.2537 -0.100886 18.3175 0.834114Z" fill="url(#paint0_linear_272_3782)"/>
<path d="M18.3175 0.834114L0.835912 18.301C0.612433 18.5237 0.435115 18.7884 0.314127 19.0798C0.193139 19.3712 0.130859 19.6836 0.130859 19.9991C0.130859 20.3146 0.193139 20.627 0.314127 20.9184C0.435115 21.2099 0.612433 21.4745 0.835912 21.6972L18.3175 39.1641C18.5405 39.3873 18.8053 39.5643 19.0967 39.6851C19.3882 39.8059 19.7006 39.8681 20.0161 39.8681C20.3316 39.8681 20.644 39.8059 20.9354 39.6851C21.2269 39.5643 21.4917 39.3873 21.7147 39.1641L29.045 31.84C29.245 31.6401 29.4036 31.4027 29.5119 31.1414C29.6201 30.8801 29.6758 30.6001 29.6758 30.3172C29.6758 30.0344 29.6201 29.7544 29.5119 29.4931C29.4036 29.2318 29.245 28.9944 29.045 28.7944C28.6407 28.3904 28.0925 28.1635 27.5209 28.1635C26.9494 28.1635 26.4012 28.3904 25.9969 28.7944L20.4406 34.346C20.2062 34.5804 19.8506 34.5804 19.6175 34.346L5.65654 20.3982C5.4231 20.1638 5.4231 19.8088 5.65654 19.5757L19.6175 5.62661C20.2 5.12474 21.1497 4.10786 22.5459 3.87005C23.5825 3.69286 24.7165 4.08255 25.9468 5.03693C25.124 4.21411 23.7143 2.80568 21.7159 0.809739C20.7722 -0.108386 19.2537 -0.100886 18.3175 0.834114Z" fill="url(#paint1_linear_272_3782)"/>
<path d="M30.7377 27.1706C31.142 27.5745 31.6901 27.8014 32.2616 27.8014C32.8331 27.8014 33.3812 27.5745 33.7855 27.1706L39.1921 21.7691C39.4155 21.5465 39.5928 21.282 39.7138 20.9907C39.8347 20.6994 39.897 20.3871 39.897 20.0717C39.897 19.7563 39.8347 19.4441 39.7138 19.1528C39.5928 18.8615 39.4155 18.597 39.1921 18.3744L33.738 12.9435C33.3327 12.54 32.7839 12.3138 32.2119 12.3145C31.64 12.3152 31.0917 12.5427 30.6874 12.9472C30.4871 13.147 30.3283 13.3844 30.2199 13.6457C30.1115 13.907 30.0557 14.1871 30.0557 14.47C30.0557 14.7529 30.1115 15.033 30.2199 15.2943C30.3283 15.5556 30.4871 15.793 30.6874 15.9928L34.3718 19.6731C34.427 19.7264 34.4709 19.7902 34.5009 19.8608C34.5309 19.9313 34.5463 20.0072 34.5463 20.0839C34.5463 20.1606 34.5309 20.2365 34.5009 20.3071C34.4709 20.3777 34.427 20.4415 34.3718 20.4947L30.7374 24.1263C30.5372 24.326 30.3783 24.5632 30.2699 24.8244C30.1616 25.0856 30.1058 25.3657 30.1058 25.6485C30.1058 25.9312 30.1616 26.2113 30.2699 26.4725C30.3783 26.7337 30.5375 26.9709 30.7377 27.1706Z" fill="url(#paint2_linear_272_3782)"/>
<path fill-rule="evenodd" clip-rule="evenodd" d="M24.8247 20.088C24.8247 17.483 22.7116 15.3711 20.1041 15.3711C17.4979 15.3711 15.3838 17.483 15.3838 20.088C15.3838 22.6917 17.4979 24.8036 20.1041 24.8036C22.7116 24.8036 24.8247 22.6917 24.8247 20.088Z" fill="url(#paint3_linear_272_3782)"/>
</g>
<defs>
<linearGradient id="paint0_linear_272_3782" x1="18.4775" y1="0.125989" x2="35.0956" y2="10.2828" gradientUnits="userSpaceOnUse">
<stop stop-color="#4285EB"/>
<stop offset="1" stop-color="#2EC7FF"/>
</linearGradient>
<linearGradient id="paint1_linear_272_3782" x1="20.6934" y1="0.125989" x2="12.4886" y2="42.5498" gradientUnits="userSpaceOnUse">
<stop stop-color="#29CDFF"/>
<stop offset="0.379" stop-color="#148EFF"/>
<stop offset="1" stop-color="#0A60FF"/>
</linearGradient>
<linearGradient id="paint2_linear_272_3782" x1="36.9146" y1="10.3001" x2="26.2335" y2="26.9996" gradientUnits="userSpaceOnUse">
<stop stop-color="#FA816E"/>
<stop offset="0.415" stop-color="#F74A5C"/>
<stop offset="1" stop-color="#F51D2C"/>
</linearGradient>
<linearGradient id="paint3_linear_272_3782" x1="21.8131" y1="12.004" x2="18.2599" y2="26.2107" gradientUnits="userSpaceOnUse">
<stop stop-color="#FA8E7D"/>
<stop offset="0.513" stop-color="#F74A5C"/>
<stop offset="1" stop-color="#F51D2C"/>
</linearGradient>
<clipPath id="clip0_272_3782">
<rect width="40" height="40" fill="white"/>
</clipPath>
</defs>
</svg>
