<svg width="40" height="40" viewBox="0 0 40 40" fill="none" xmlns="http://www.w3.org/2000/svg">
<path d="M11.3686 16.7631C11.3686 17.2506 11.4211 17.6459 11.5139 17.935C11.6189 18.2244 11.7508 18.5406 11.9348 18.8825C11.9995 18.9875 12.0264 19.0925 12.0264 19.1853C12.0264 19.3159 11.947 19.4478 11.7764 19.5794L10.9473 20.1325C10.8289 20.2106 10.7105 20.2509 10.6058 20.2509C10.4739 20.2509 10.342 20.185 10.2102 20.0666C10.0332 19.8756 9.87457 19.6685 9.73641 19.4478C9.58999 19.1947 9.45404 18.9356 9.32891 18.6712C8.30328 19.8822 7.01328 20.4878 5.46016 20.4878C4.35547 20.4878 3.47422 20.1716 2.82859 19.5403C2.18391 18.9081 1.85547 18.0659 1.85547 17.0134C1.85547 15.8953 2.24984 14.9872 3.05328 14.3038C3.85516 13.6188 4.92078 13.2769 6.27703 13.2769C6.72391 13.2769 7.18391 13.3159 7.67078 13.3819C8.15828 13.4478 8.65859 13.5528 9.18484 13.6712V12.7106C9.18484 11.7106 8.97359 11.0137 8.56609 10.6062C8.14422 10.1984 7.43391 10.0006 6.42078 10.0006C5.96047 10.0006 5.48703 10.0531 4.99984 10.1716C4.51614 10.2868 4.04129 10.4365 3.57891 10.6194C3.36766 10.7109 3.21016 10.7634 3.11859 10.7903C3.02609 10.8159 2.96016 10.8294 2.90766 10.8294C2.72328 10.8294 2.63172 10.6975 2.63172 10.4219V9.77719C2.63172 9.56594 2.65734 9.40844 2.72328 9.31594C2.78891 9.22437 2.90766 9.13281 3.09203 9.04C3.55203 8.80312 4.10516 8.60562 4.74953 8.44781C5.39422 8.27687 6.07891 8.19781 6.80266 8.19781C8.36766 8.19781 9.51266 8.55281 10.2502 9.26344C10.9739 9.97375 11.3414 11.0528 11.3414 12.5006V16.7631H11.3686ZM6.02672 18.7641C6.46016 18.7641 6.90797 18.6847 7.38172 18.5272C7.85547 18.3684 8.27641 18.0794 8.63172 17.685C8.84172 17.435 9.00047 17.1587 9.07859 16.8428C9.15797 16.5266 9.21047 16.1459 9.21047 15.6975V15.1459C8.81186 15.048 8.40797 14.973 8.00078 14.9212C7.5902 14.8695 7.1768 14.8434 6.76297 14.8431C5.88172 14.8431 5.23703 15.0141 4.80234 15.3694C4.36891 15.7244 4.15797 16.2238 4.15797 16.8819C4.15797 17.5006 4.31547 17.9609 4.64484 18.2769C4.96109 18.6053 5.42141 18.7641 6.02672 18.7641ZM16.592 20.185C16.3552 20.185 16.1977 20.1459 16.0927 20.0531C15.9864 19.9737 15.8948 19.7906 15.8155 19.5406L12.7236 9.36937C12.6455 9.10594 12.6048 8.935 12.6048 8.84219C12.6048 8.63219 12.7102 8.51406 12.9214 8.51406H14.2105C14.4605 8.51406 14.6314 8.55281 14.7242 8.64562C14.8292 8.72375 14.9086 8.90813 14.9867 9.15813L17.1973 17.8694L19.2505 9.15844C19.3155 8.89594 19.3948 8.72406 19.4995 8.64594C19.6058 8.56625 19.7902 8.51375 20.027 8.51375H21.0792C21.3292 8.51375 21.5005 8.55281 21.6055 8.64562C21.7105 8.72375 21.8033 8.90813 21.8555 9.15813L23.9345 17.9744L26.2111 9.15844C26.2892 8.89594 26.382 8.72406 26.4736 8.64594C26.5786 8.56625 26.7508 8.51375 26.9873 8.51375H28.2105C28.4217 8.51375 28.5402 8.61875 28.5402 8.84219C28.5402 8.90781 28.5267 8.97406 28.5133 9.05344C28.4998 9.13281 28.4742 9.23781 28.4217 9.38156L25.2505 19.5537C25.1711 19.8162 25.0795 19.9872 24.9733 20.0662C24.8683 20.1459 24.6973 20.1984 24.4739 20.1984H23.3427C23.0923 20.1984 22.9214 20.1578 22.8164 20.0666C22.7102 19.9737 22.6186 19.8028 22.5661 19.5403L20.5264 11.0528L18.4998 19.5269C18.4342 19.7906 18.3561 19.9616 18.2498 20.0531C18.1445 20.1459 17.9605 20.185 17.7236 20.185H16.592ZM33.4998 20.5403C32.8164 20.5403 32.1314 20.4609 31.4736 20.3034C30.8155 20.1459 30.303 19.9738 29.9611 19.7772C29.7498 19.6588 29.6058 19.5272 29.5533 19.4084C29.5014 19.2924 29.4744 19.1668 29.4739 19.0397V18.3684C29.4739 18.0928 29.5789 17.9609 29.777 17.9609C29.8552 17.9609 29.9342 17.9744 30.0136 18.0013C30.0917 18.0269 30.2102 18.0794 30.3417 18.1319C30.8069 18.3361 31.2922 18.4908 31.7898 18.5931C32.3158 18.6981 32.8286 18.7506 33.3558 18.7506C34.1848 18.7506 34.8292 18.6053 35.2761 18.3162C35.7239 18.0269 35.9608 17.6056 35.9608 17.0662C35.9608 16.6975 35.8423 16.3959 35.6058 16.1456C35.3689 15.8956 34.9208 15.6719 34.2764 15.4609L32.3683 14.8687C31.4077 14.5659 30.697 14.1194 30.2639 13.5272C29.8295 12.9475 29.6058 12.3028 29.6058 11.6194C29.6058 11.0662 29.7245 10.5794 29.9611 10.1581C30.196 9.73483 30.519 9.36686 30.9083 9.07906C31.3027 8.7775 31.7508 8.55281 32.277 8.39531C32.803 8.23781 33.3558 8.17188 33.9345 8.17188C34.2239 8.17188 34.5264 8.18531 34.8158 8.22437C35.1186 8.26344 35.3945 8.31594 35.6714 8.36844C35.9339 8.43437 36.1842 8.50031 36.4211 8.57969C36.658 8.65906 36.8423 8.73719 36.9742 8.81656C37.1586 8.92156 37.2902 9.02656 37.3683 9.14469C37.4477 9.25094 37.4867 9.39531 37.4867 9.57937V10.1981C37.4867 10.4744 37.3817 10.6194 37.1839 10.6194C37.0789 10.6194 36.908 10.5659 36.6848 10.4609C35.9339 10.1191 35.0917 9.94813 34.158 9.94813C33.4083 9.94813 32.8164 10.0666 32.4086 10.3169C31.9995 10.5659 31.7898 10.9481 31.7898 11.4875C31.7898 11.8562 31.9214 12.1722 32.1839 12.4212C32.4477 12.6712 32.9348 12.9219 33.6317 13.145L35.5005 13.7372C36.448 14.04 37.1317 14.4609 37.5392 15.0006C37.947 15.5403 38.1448 16.1591 38.1448 16.8428C38.1448 17.4091 38.0261 17.9219 37.803 18.3684C37.5661 18.8166 37.2498 19.2109 36.8423 19.5269C36.4345 19.8553 35.9473 20.0922 35.3823 20.2644C34.7902 20.4475 34.1714 20.5403 33.4998 20.5403Z" fill="#252F3E"/>
<path d="M36.8755 22.921C35.4905 22.9407 33.8555 23.2497 32.6189 24.1185C32.2367 24.3944 32.3027 24.7628 32.7239 24.7103C34.1327 24.5394 37.2364 24.171 37.7895 24.8813C38.3427 25.5782 37.172 28.5125 36.6448 29.8157C36.4873 30.2094 36.8292 30.3685 37.1842 30.0657C39.4998 28.1185 40.1055 24.0525 39.6317 23.4603C39.3952 23.1713 38.2605 22.901 36.8755 22.921ZM0.509843 23.7057C0.220155 23.7419 0.0889055 24.0919 0.394843 24.3685C5.55359 29.0253 12.382 31.8285 19.9614 31.8285C25.3692 31.8285 31.6583 30.1316 35.9867 26.9347C36.697 26.4072 36.0795 25.6053 35.3555 25.9335C30.5011 27.9866 25.2239 28.9866 20.4217 28.9866C13.3036 28.9866 6.42172 27.0263 0.842655 23.7888C0.72078 23.7166 0.606718 23.6938 0.510155 23.7057H0.509843Z" fill="#FF9900"/>
</svg>
