<svg width="40" height="40" viewBox="0 0 40 40" fill="none" xmlns="http://www.w3.org/2000/svg">
<path d="M5.87918 35.6628L2.7373 0.421875H37.2623L34.1173 35.6575L19.9789 39.5772L5.87918 35.6628Z" fill="#1572B6"/>
<path d="M20 36.5828L31.4247 33.4153L34.1125 3.30469H20V36.5828Z" fill="#33A9DC"/>
<path d="M20 16.0723H25.7194L26.1144 11.6464H20V7.32422H30.8381L30.7344 8.48391L29.6719 20.3945H20V16.0723Z" fill="white"/>
<path d="M20.0263 27.2959L20.0072 27.3016L15.1938 26.0019L14.886 22.5547H10.5479L11.1532 29.3412L20.0066 31.7984L20.0263 31.7928V27.2959Z" fill="#EBEBEB"/>
<path d="M25.352 20.2109L24.8314 25.9991L20.0107 27.3003V31.7972L28.8714 29.3416L28.9364 28.6112L29.6882 20.2109H25.352Z" fill="white"/>
<path d="M20.0154 7.32422V11.6464H9.57535L9.48879 10.6752L9.29191 8.48391L9.18848 7.32422H20.0154ZM20.0007 16.073V20.3952H15.2479L15.1613 19.4239L14.9641 17.2327L14.861 16.073H20.0007Z" fill="#EBEBEB"/>
</svg>
