<svg width="40" height="40" viewBox="0 0 40 40" fill="none" xmlns="http://www.w3.org/2000/svg">
<path fill-rule="evenodd" clip-rule="evenodd" d="M23.0621 15.875H26.5934V19.4688H28.3746C29.1871 19.4688 30.0309 19.3125 30.8121 19.0625C31.1871 18.9375 31.6246 18.75 31.9996 18.5312C31.4996 17.875 31.2496 17.0625 31.1871 16.25C31.0934 15.1562 31.3121 13.7188 32.0621 12.875L32.4371 12.4375L32.8746 12.7813C33.9996 13.6875 34.9059 14.9062 35.0934 16.3438C36.4371 15.9375 37.9996 16.0312 39.1871 16.7188L39.6559 17L39.4059 17.5C38.4059 19.4375 36.3121 20.0625 34.2809 19.9375C31.2184 27.5312 24.5934 31.125 16.5309 31.125C12.3746 31.125 8.56215 29.5625 6.37465 25.875L6.3434 25.8125L6.0309 25.1562C5.2809 23.5312 5.06215 21.75 5.2184 19.9688L5.2809 19.4375H8.2809V15.875H11.8121V12.375H18.8434V8.84375H23.0621V15.875Z" fill="#3A4D54"/>
<path d="M34.5004 17.2187C34.7504 15.375 33.3754 13.9375 32.5004 13.25C31.5316 14.375 31.3754 17.375 32.9066 18.625C32.0316 19.375 30.2504 20.0938 28.3754 20.0938H5.81286C5.62536 22.0312 5.96911 23.8125 6.75036 25.3437L7.00036 25.8125C7.15661 26.0937 7.34411 26.3437 7.53161 26.625C8.46911 26.6875 9.31286 26.7188 10.0941 26.6875C11.6254 26.6562 12.8754 26.4687 13.8441 26.1562C14.0004 26.0937 14.1254 26.1875 14.1879 26.3125C14.2504 26.4687 14.1566 26.5938 14.0316 26.6562C13.9066 26.6875 13.7816 26.75 13.6254 26.7812C12.8754 27 12.0629 27.125 11.0316 27.1875H10.8441C10.4379 27.2188 10.0004 27.2187 9.53161 27.2187C9.03161 27.2187 8.56286 27.2188 8.00036 27.1875C9.87536 29.3125 12.8129 30.5625 16.5004 30.5625C24.3129 30.5625 30.9379 27.0938 33.8441 19.3438C35.9379 19.5625 37.9379 19.0312 38.8441 17.25C37.4379 16.4062 35.5629 16.6875 34.5004 17.2187Z" fill="#00AADA"/>
<path d="M34.4997 17.2187C34.7497 15.375 33.3747 13.9375 32.4997 13.25C31.531 14.375 31.3747 17.375 32.906 18.625C32.031 19.375 30.2497 20.0938 28.3747 20.0938H7.12471C7.03096 23.0625 8.12471 25.3125 10.0935 26.6562C11.6247 26.625 12.8747 26.4375 13.8435 26.125C13.9997 26.0625 14.1247 26.1562 14.1872 26.2812C14.2497 26.4375 14.156 26.5625 14.031 26.625C13.906 26.6562 13.781 26.7187 13.6247 26.75C12.8747 26.9687 11.9997 27.125 10.9685 27.1875L10.9372 27.1562C13.5935 28.5312 17.4372 28.5 21.8747 26.8125C26.8122 24.9063 31.4372 21.2812 34.656 17.1562C34.5935 17.1875 34.531 17.1875 34.4997 17.2187Z" fill="#28B8EB"/>
<path d="M5.84375 22.4375C5.96875 23.4688 6.28125 24.4375 6.75 25.3437L7 25.8125C7.15625 26.0937 7.34375 26.3437 7.53125 26.625C8.46875 26.6875 9.3125 26.7188 10.0937 26.6875C11.625 26.6562 12.875 26.4687 13.8437 26.1562C14 26.0937 14.125 26.1875 14.1875 26.3125C14.25 26.4687 14.1562 26.5938 14.0312 26.6563C13.9062 26.6875 13.7812 26.75 13.625 26.7812C12.875 27 12 27.1562 10.9687 27.2187H10.8438C10.4375 27.25 10 27.25 9.5625 27.25C9.0625 27.25 8.5625 27.25 8.03125 27.2187C9.90625 29.3437 12.875 30.5938 16.5625 30.5938C23.25 30.5938 29.0625 28.0625 32.4375 22.4687H5.84375V22.4375Z" fill="#028BB8"/>
<path d="M7.34375 22.4375C7.75 24.25 8.6875 25.6875 10.0937 26.6562C11.625 26.625 12.875 26.4375 13.8438 26.125C14 26.0625 14.125 26.1562 14.1875 26.2812C14.25 26.4375 14.1563 26.5625 14.0313 26.625C13.9063 26.6562 13.7812 26.7187 13.625 26.75C12.875 26.9687 12 27.125 10.9375 27.1875C13.5938 28.5625 17.4375 28.5312 21.8438 26.8437C24.5 25.8125 27.0938 24.2812 29.4062 22.4375H7.34375Z" fill="#019BC6"/>
<path fill-rule="evenodd" clip-rule="evenodd" d="M8.875 16.4688H11.9375V19.5312H8.875V16.4688ZM9.125 16.7188H9.375V19.25H9.125V16.7188ZM9.5625 16.7188H9.8125V19.25H9.5625V16.7188ZM10.0312 16.7188H10.2813V19.25H10.0312V16.7188ZM10.5 16.7188H10.75V19.25H10.5V16.7188ZM10.9687 16.7188H11.2188V19.25H10.9687V16.7188ZM11.4375 16.7188H11.6875V19.25H11.4375V16.7188ZM12.375 12.9688H15.4375V16.0312H12.375V12.9688ZM12.6562 13.2187H12.9062V15.75H12.6562V13.2187ZM13.0938 13.2187H13.3438V15.75H13.0938V13.2187ZM13.5625 13.2187H13.8125V15.75H13.5625V13.2187ZM14.0313 13.2187H14.2813V15.75H14.0313V13.2187ZM14.4688 13.2187H14.7187V15.75H14.4688V13.2187ZM14.9375 13.2187H15.1875V15.75H14.9375V13.2187Z" fill="#00ACD3"/>
<path fill-rule="evenodd" clip-rule="evenodd" d="M12.375 16.4688H15.4375V19.5312H12.375V16.4688ZM12.6563 16.7187H12.9063V19.25H12.6563V16.7187ZM13.0938 16.7187H13.3438V19.25H13.0938V16.7187ZM13.5625 16.7187H13.8125V19.25H13.5625V16.7187ZM14.0313 16.7187H14.2813V19.25H14.0313V16.7187ZM14.4688 16.7187H14.7188V19.25H14.4688V16.7187ZM14.9375 16.7187H15.1875V19.25H14.9375V16.7187Z" fill="#23C2EE"/>
<path fill-rule="evenodd" clip-rule="evenodd" d="M15.9062 16.4688H18.9687V19.5312H15.9062V16.4688ZM16.1562 16.7187H16.4062V19.25H16.1562V16.7187ZM16.625 16.7187H16.875V19.25H16.625V16.7187ZM17.0937 16.7187H17.3437V19.25H17.0937V16.7187ZM17.5312 16.7187H17.7812V19.25H17.5312V16.7187ZM18 16.7187H18.25V19.25H18V16.7187ZM18.4687 16.7187H18.7188V19.25H18.4687V16.7187Z" fill="#00ACD3"/>
<path fill-rule="evenodd" clip-rule="evenodd" d="M15.9062 12.9688H18.9687V16.0312H15.9062V12.9688ZM16.1562 13.2187H16.4062V15.75H16.1562V13.2187ZM16.625 13.2187H16.875V15.75H16.625V13.2187ZM17.0937 13.2187H17.3437V15.75H17.0937V13.2187ZM17.5312 13.2187H17.7812V15.75H17.5312V13.2187ZM18 13.2187H18.25V15.75H18V13.2187ZM18.4687 13.2187H18.7188V15.75H18.4687V13.2187ZM19.4375 16.4688H22.5V19.5312H19.4375V16.4688ZM19.6875 16.7188H19.9375V19.25H19.6875V16.7188ZM20.1562 16.7188H20.4063V19.25H20.1562V16.7188ZM20.5938 16.7188H20.8437V19.25H20.5938V16.7188ZM21.0625 16.7188H21.3125V19.25H21.0625V16.7188ZM21.5312 16.7188H21.7812V19.25H21.5312V16.7188ZM22 16.7188H22.25V19.25H22V16.7188Z" fill="#23C2EE"/>
<path fill-rule="evenodd" clip-rule="evenodd" d="M19.4375 12.9688H22.5V16.0312H19.4375V12.9688ZM19.6875 13.2187H19.9375V15.75H19.6875V13.2187ZM20.1562 13.2187H20.4063V15.75H20.1562V13.2187ZM20.5938 13.2187H20.8437V15.75H20.5938V13.2187ZM21.0625 13.2187H21.3125V15.75H21.0625V13.2187ZM21.5313 13.2187H21.7812V15.75H21.5313V13.2187ZM22 13.2187H22.25V15.75H22V13.2187Z" fill="#00ACD3"/>
<path fill-rule="evenodd" clip-rule="evenodd" d="M19.4375 9.4375H22.5V12.5H19.4375V9.4375ZM19.6875 9.6875H19.9375V12.2187H19.6875V9.6875ZM20.1562 9.6875H20.4063V12.2187H20.1562V9.6875ZM20.5938 9.6875H20.8437V12.2187H20.5938V9.6875ZM21.0625 9.6875H21.3125V12.2187H21.0625V9.6875ZM21.5313 9.6875H21.7812V12.2187H21.5313V9.6875ZM22 9.6875H22.25V12.2187H22V9.6875Z" fill="#23C2EE"/>
<path fill-rule="evenodd" clip-rule="evenodd" d="M22.9688 16.4688H26.0313V19.5312H22.9688V16.4688ZM23.2188 16.7187H23.4687V19.25H23.2188V16.7187ZM23.6562 16.7187H23.9062V19.25H23.6562V16.7187ZM24.125 16.7187H24.375V19.25H24.125V16.7187ZM24.5937 16.7187H24.8438V19.25H24.5937V16.7187ZM25.0625 16.7187H25.3125V19.25H25.0625V16.7187ZM25.5312 16.7187H25.7812V19.25H25.5312V16.7187Z" fill="#00ACD3"/>
<path fill-rule="evenodd" clip-rule="evenodd" d="M15.25 24.4688C15.7188 24.4688 16.0938 24.8437 16.0938 25.3125C16.0938 25.7812 15.7188 26.1562 15.25 26.1562C14.7813 26.1562 14.4062 25.7812 14.4062 25.3125C14.4062 24.8437 14.7813 24.4688 15.25 24.4688Z" fill="#D4EEF1"/>
<path fill-rule="evenodd" clip-rule="evenodd" d="M15.25 24.7188C15.3125 24.7188 15.4062 24.7187 15.4688 24.75C15.4062 24.7812 15.3438 24.875 15.3438 24.9688C15.3438 25.0938 15.4688 25.2187 15.5938 25.2187C15.6875 25.2187 15.7812 25.1563 15.8125 25.0938C15.8438 25.1563 15.8438 25.25 15.8438 25.3125C15.8438 25.6563 15.5625 25.9063 15.25 25.9063C14.9062 25.9063 14.6563 25.625 14.6563 25.3125C14.6563 25 14.9062 24.7188 15.25 24.7188ZM0.34375 22.75H39.5312C38.6875 22.5313 36.8438 22.25 37.125 21.125C35.5625 22.9062 31.8438 22.375 30.875 21.5C29.8125 23.0313 23.6875 22.4375 23.2812 21.25C21.9688 22.8125 17.875 22.8125 16.5625 21.25C16.125 22.4375 10 23.0313 8.96875 21.5C8.03125 22.375 4.28125 22.9062 2.71875 21.125C3.0625 22.2188 1.1875 22.5313 0.34375 22.75Z" fill="#3A4D54"/>
<path d="M17.5 30.5625C15.4062 29.5625 14.2812 28.2188 13.625 26.75C12.8437 26.9688 11.9063 27.125 10.8438 27.1875C10.4375 27.2188 10 27.2188 9.5625 27.2188C9.03125 27.2188 8.5 27.2188 7.9375 27.1875C9.8125 29.0625 12.1875 30.5313 16.5313 30.5625H17.5Z" fill="#BFDBE0"/>
<path d="M14.4062 28.0938C14.125 27.6875 13.8437 27.2188 13.625 26.75C12.8437 26.9688 11.9062 27.125 10.8438 27.1875C11.5625 27.5625 12.625 27.9375 14.4062 28.0938Z" fill="#D4EEF1"/>
</svg>
