<svg width="40" height="40" viewBox="0 0 40 40" fill="none" xmlns="http://www.w3.org/2000/svg">
<path d="M39.5844 30.7622C38.1594 31.1247 37.2781 30.7778 36.4875 29.5903C34.7125 26.931 32.7531 24.3935 30.8625 21.8091C30.6187 21.4747 30.3656 21.1466 30.05 20.731C27.8125 23.7497 25.5781 26.6247 23.4812 29.6153C22.7312 30.6841 21.9437 31.1497 20.5437 30.7716L28.9562 19.481L21.125 9.28409C22.4719 9.02159 23.4031 9.15596 24.2281 10.3622C26.05 13.0247 28.0594 15.5591 30.0625 18.2403C32.0781 15.5685 34.0625 13.031 35.9375 10.3935C36.6906 9.32471 37.5 8.91846 38.8531 9.31221C37.8281 10.6716 36.825 12.0091 35.8156 13.3372C34.4531 15.1278 33.1156 16.9403 31.7031 18.6935C31.2 19.3185 31.2812 19.7247 31.7312 20.3153C34.3438 23.7497 36.925 27.2185 39.5844 30.7622ZM0.415625 19.2935C0.640625 18.1653 0.790625 17.0153 1.10312 15.9091C2.97813 9.21221 10.6656 6.42784 15.9469 10.5778C19.0406 13.0122 19.8094 16.4435 19.6562 20.3122H2.21875C1.95625 27.2528 6.95313 31.4435 13.3219 29.306C15.5563 28.556 16.8719 26.806 17.5312 24.6185C17.8656 23.5216 18.4188 23.3497 19.45 23.6622C18.9219 26.3997 17.725 28.6872 15.225 30.1185C11.475 32.2622 6.12187 31.5685 3.30625 28.5903C1.64375 26.8403 0.9375 24.6622 0.625 22.3091C0.578125 21.9341 0.48125 21.5653 0.40625 21.1935C0.4125 20.5601 0.415625 19.9268 0.415625 19.2935ZM2.25 18.8278H18.0094C17.9062 13.8091 14.7813 10.2435 10.5094 10.2122C5.82188 10.1747 2.45312 13.656 2.25 18.8278Z" fill="black"/>
</svg>
