<svg width="40" height="40" viewBox="0 0 40 40" fill="none" xmlns="http://www.w3.org/2000/svg">
<path fill-rule="evenodd" clip-rule="evenodd" d="M20.0002 1.59375C9.57922 1.59375 1.12891 10.0422 1.12891 20.465C1.12891 28.8031 6.53609 35.8766 14.0342 38.3722C14.977 38.5472 15.3233 37.9628 15.3233 37.4644C15.3233 37.0144 15.3058 35.5278 15.2977 33.9509C10.0477 35.0925 8.93984 31.7244 8.93984 31.7244C8.08141 29.5431 6.84453 28.9631 6.84453 28.9631C5.13203 27.7919 6.97359 27.8163 6.97359 27.8163C8.86828 27.9491 9.86641 29.7609 9.86641 29.7609C11.5495 32.6453 14.2811 31.8116 15.358 31.3297C15.5273 30.11 16.0164 29.2772 16.5561 28.8059C12.3645 28.3294 7.95797 26.7109 7.95797 19.48C7.95797 17.4197 8.69547 15.7363 9.90266 14.4144C9.70641 13.9394 9.06047 12.02 10.0852 9.42063C10.0852 9.42063 11.6695 8.91344 15.2758 11.355C16.7814 10.9366 18.3961 10.7263 20.0002 10.7191C21.6033 10.7263 23.2189 10.9359 24.7273 11.3544C28.3292 8.91281 29.9117 9.42 29.9117 9.42C30.9389 12.0191 30.293 13.9388 30.097 14.4138C31.307 15.7356 32.0392 17.4191 32.0392 19.4794C32.0392 26.7275 27.6245 28.3231 23.4223 28.7906C24.0995 29.3763 24.7027 30.525 24.7027 32.2853C24.7027 34.8103 24.6808 36.8425 24.6808 37.4641C24.6808 37.9663 25.0208 38.5547 25.977 38.3694C33.4708 35.8713 38.8717 28.8 38.8717 20.465C38.8714 10.0428 30.422 1.59375 20.0002 1.59375Z" fill="#181616"/>
<path d="M8.27624 28.6886C8.23468 28.7823 8.08718 28.8105 7.95281 28.7464C7.81531 28.6852 7.73874 28.5573 7.78312 28.4633C7.82374 28.3664 7.97156 28.3398 8.10812 28.4045C8.24562 28.4661 8.32374 28.5952 8.27593 28.6889L8.27624 28.6886ZM9.04062 29.5414C8.95093 29.6248 8.77499 29.5861 8.65562 29.4539C8.53187 29.3227 8.50874 29.1467 8.60031 29.062C8.69343 28.9789 8.86406 29.0183 8.98781 29.1495C9.11093 29.2827 9.13531 29.457 9.04093 29.5417L9.04062 29.5414ZM9.78499 30.628C9.66937 30.7086 9.47999 30.6333 9.36312 30.4655C9.24749 30.2973 9.24749 30.0958 9.36624 30.0155C9.48281 29.9348 9.66937 30.0077 9.78812 30.1739C9.90312 30.3442 9.90312 30.5461 9.78499 30.628ZM10.8041 31.6783C10.7009 31.7923 10.4803 31.7617 10.3191 31.6064C10.1544 31.4542 10.1084 31.2377 10.2119 31.1239C10.3169 31.0095 10.5384 31.0414 10.7006 31.1958C10.8653 31.3477 10.915 31.5645 10.8047 31.678L10.8041 31.6783ZM12.2103 32.288C12.1644 32.4358 11.9525 32.503 11.7384 32.4398C11.525 32.3752 11.3853 32.2023 11.4291 32.053C11.4728 31.9039 11.6862 31.8342 11.9016 31.9014C12.115 31.9658 12.2547 32.1377 12.2103 32.288ZM13.755 32.4008C13.7603 32.5564 13.5791 32.6852 13.355 32.6883C13.1291 32.6936 12.9462 32.5673 12.9441 32.4142C12.9441 32.257 13.1216 32.1298 13.3472 32.1255C13.5712 32.1214 13.7553 32.2464 13.7553 32.4005L13.755 32.4008ZM15.1919 32.1564C15.2187 32.308 15.0628 32.4639 14.84 32.5055C14.6212 32.5461 14.4181 32.4517 14.39 32.3014C14.3631 32.1458 14.5219 31.9898 14.7406 31.9495C14.9637 31.9111 15.1637 32.0023 15.1919 32.1564Z" fill="#181616"/>
</svg>
