<svg width="40" height="40" viewBox="0 0 40 40" fill="none" xmlns="http://www.w3.org/2000/svg">
<path d="M20.483 37.2557C17.1345 37.2557 14.1241 36.4991 11.4517 34.9858C8.81155 33.4725 6.73485 31.3797 5.22159 28.7074C3.74053 26.035 3 23.0085 3 19.6278C3 16.2472 3.74053 13.2206 5.22159 10.5483C6.73485 7.87595 8.81155 5.78314 11.4517 4.26989C14.1241 2.75663 17.1345 2 20.483 2C23.4129 2 26.0852 2.62784 28.5 3.88352C30.947 5.10701 32.911 6.82955 34.392 9.05114C35.9053 11.2727 36.7746 13.768 37 16.5369H29.1761C28.8864 15.1203 28.3229 13.8968 27.4858 12.8665C26.6809 11.804 25.6667 10.983 24.4432 10.4034C23.2519 9.82386 21.8996 9.53409 20.3864 9.53409C18.5511 9.53409 16.9091 9.96875 15.4602 10.8381C14.0436 11.7074 12.9328 12.9148 12.1278 14.4602C11.3229 15.9735 10.9205 17.696 10.9205 19.6278C10.9205 21.5597 11.3229 23.2983 12.1278 24.8438C12.9328 26.357 14.0436 27.5483 15.4602 28.4176C16.9091 29.2547 18.5511 29.6733 20.3864 29.6733C21.8996 29.6733 23.2519 29.3996 24.4432 28.8523C25.6667 28.2727 26.6809 27.4678 27.4858 26.4375C28.3229 25.375 28.8864 24.1354 29.1761 22.7188H37C36.7746 25.4877 35.9053 27.983 34.392 30.2045C32.911 32.4261 30.947 34.1648 28.5 35.4205C26.0852 36.6439 23.4129 37.2557 20.483 37.2557Z" fill="#FF4800"/>
</svg>
