<svg width="24" height="24" viewBox="0 0 24 24" fill="none" xmlns="http://www.w3.org/2000/svg">
<path d="M18.8498 5.05C17.4498 3.65 15.1498 3.65 13.7498 5.05L9.3498 9.35C7.9498 10.85 7.9498 13.05 9.3498 14.55C9.4498 14.65 9.6498 14.75 9.7498 14.85L11.2498 13.35C11.1498 13.25 10.9498 13.15 10.8498 13.05C10.2498 12.45 10.2498 11.45 10.8498 10.85L15.2498 6.45C15.8498 5.85 16.8498 5.85 17.4498 6.45C18.0498 7.05 18.0498 8.05 17.4498 8.65L16.1498 9.95C16.5498 10.75 16.6498 11.65 16.5498 12.45L18.8498 10.15C20.3498 8.75 20.3498 6.45 18.8498 5.05Z" fill="#1C2E45" fill-opacity="0.6"/>
<path d="M14.15 9.05078L12.65 10.5508C12.65 10.5508 12.95 10.7508 13.05 10.8508C13.65 11.4508 13.65 12.4508 13.05 13.0508L8.65 17.4508C8.05 18.0508 7.05 18.0508 6.45 17.4508C5.85 16.8508 5.85 15.8508 6.45 15.2508L7.75 13.9508C7.35 13.1508 7.65 12.6508 7.35 11.4508L5.05 13.7508C3.65 15.1508 3.65 17.4508 5.05 18.8508C6.45 20.2508 8.75 20.2508 10.15 18.8508L14.55 14.4508C15.95 13.0508 15.95 10.7508 14.55 9.35078C14.35 9.25078 14.15 9.05078 14.15 9.05078Z" fill="#1C2E45" fill-opacity="0.6"/>
</svg>
