<svg width="40" height="40" viewBox="0 0 40 40" fill="none" xmlns="http://www.w3.org/2000/svg">
<g clip-path="url(#clip0_272_3764)">
<path d="M0.44043 0.439453H39.5604V39.5598H0.44043V0.439453Z" fill="#F0DB4F"/>
<path d="M36.3582 30.2305C36.0717 28.4458 34.9079 26.9468 31.4607 25.5489C30.2632 24.9986 28.9282 24.6046 28.5304 23.6971C28.3892 23.1689 28.3704 22.8714 28.4598 22.5518C28.7164 21.5143 29.9548 21.1908 30.9364 21.4883C31.5686 21.7002 32.167 22.1874 32.5279 22.9646C34.2161 21.8714 34.2126 21.8786 35.3914 21.1274C34.9598 20.4583 34.7295 20.1496 34.447 19.8633C33.4317 18.7293 32.0482 18.1452 29.8357 18.1899L28.6832 18.3389C27.5789 18.618 26.5264 19.1977 25.9092 19.9749C24.0573 22.0761 24.5854 25.7536 26.8389 27.2671C29.0589 28.9333 32.3201 29.3124 32.7367 30.8705C33.142 32.778 31.3348 33.3955 29.5386 33.1761C28.2148 32.9008 27.4786 32.228 26.6826 31.0046C25.2176 31.8524 25.2176 31.8524 23.7114 32.7186C24.0686 33.4996 24.4439 33.853 25.0426 34.5296C27.8764 37.4039 34.9676 37.2627 36.2395 32.9121C36.2911 32.7627 36.6336 31.7664 36.3582 30.2305ZM21.7067 18.4202H18.0476L18.0326 27.8802C18.0326 29.8921 18.1367 31.7364 17.8095 32.3018C17.2742 33.4136 15.887 33.2758 15.2548 33.0602C14.6114 32.7439 14.2842 32.2943 13.9051 31.6586C13.8011 31.4761 13.7229 31.3349 13.6967 31.3239L10.7217 33.1458C11.2164 34.1611 11.9451 35.0424 12.8786 35.6149C14.2729 36.4518 16.147 36.7083 18.107 36.2583C19.3826 35.8868 20.4832 35.1171 21.0595 33.9455C21.8926 32.4096 21.7139 30.5505 21.7064 28.4943C21.7251 25.1396 21.7067 21.7855 21.7067 18.4202Z" fill="#323330"/>
</g>
<defs>
<clipPath id="clip0_272_3764">
<rect width="40" height="40" fill="white"/>
</clipPath>
</defs>
</svg>
