<svg width="40" height="40" viewBox="0 0 40 40" fill="none" xmlns="http://www.w3.org/2000/svg">
<path d="M9.125 19.6875H8.75C8.59375 21.2812 8.375 23.2188 5.625 23.2188H4.375C3.65625 23.2188 3.625 23.125 3.625 22.5938V14.3125C3.625 13.7812 3.625 13.5625 5.09375 13.5625H5.59375V13.0938C5 13.125 3.625 13.125 2.96875 13.125C2.375 13.125 1.15625 13.125 0.625 13.0938V13.5625H0.96875C2.15625 13.5625 2.1875 13.7187 2.1875 14.2812V22.4375C2.1875 23 2.15625 23.1562 0.96875 23.1562H0.625V23.625H8.6875L9.125 19.6875Z" fill="black"/>
<path d="M8.84375 13.0625C8.78125 12.875 8.75 12.8125 8.5625 12.8125C8.375 12.8125 8.3125 12.875 8.25 13.0625L5.75 19.4062C5.65625 19.6562 5.46875 20.1562 4.5 20.1562V20.5312H6.90625V20.1562C6.4375 20.1562 6.125 19.9375 6.125 19.625C6.125 19.5625 6.125 19.5312 6.15625 19.4062L6.6875 18.0625H9.78125L10.4062 19.6563C10.4375 19.7188 10.4688 19.7812 10.4688 19.8438C10.4688 20.1562 9.875 20.1562 9.59375 20.1562V20.5312H12.6562V20.1562H12.4375C11.7188 20.1562 11.625 20.0625 11.5313 19.75L8.84375 13.0625ZM8.25 14.1875L9.625 17.7188H6.84375L8.25 14.1875Z" fill="black"/>
<path d="M21.3125 13.1875H11.8438L11.5625 16.6562H11.9375C12.1563 14.1562 12.375 13.625 14.75 13.625C15.0313 13.625 15.4375 13.625 15.5938 13.6562C15.9063 13.7188 15.9063 13.875 15.9063 14.25V22.4062C15.9063 22.9375 15.9062 23.1562 14.2813 23.1562H13.6563V23.625C14.2813 23.5937 15.875 23.5938 16.5937 23.5938C17.3125 23.5938 18.9062 23.5937 19.5625 23.625V23.1562H18.9375C17.3125 23.1562 17.3125 22.9375 17.3125 22.4062V14.2812C17.3125 13.9688 17.3125 13.75 17.5938 13.6875C17.75 13.6562 18.1875 13.6562 18.4687 13.6562C20.8125 13.6562 21.0312 14.1563 21.25 16.6875H21.625L21.3125 13.1875Z" fill="black"/>
<path d="M29.6563 23.1875H29.2813C28.9063 25.5625 28.5313 26.7188 25.875 26.7188H23.8125C23.0938 26.7188 23.0625 26.625 23.0625 26.0938V21.9375H24.4375C25.9375 21.9375 26.125 22.4375 26.125 23.75H26.5V19.6563H26.125C26.125 20.9688 25.9688 21.4687 24.4375 21.4687H23.0625V17.7188C23.0625 17.2188 23.0938 17.0938 23.8125 17.0938H25.8125C28.1875 17.0938 28.5938 17.9375 28.8438 20.125H29.2188L28.7813 16.625H20.0625V17.0938H20.4063C21.5938 17.0938 21.625 17.25 21.625 17.8125V25.9375C21.625 26.5 21.5938 26.6563 20.4063 26.6563H20.0625V27.1875H29L29.6563 23.1875Z" fill="black"/>
<path d="M34.3438 17.6875L36.4687 14.5625C36.7812 14.0625 37.3125 13.5625 38.7188 13.5625V13.0938H35V13.5625C35.625 13.5625 35.9688 13.9062 35.9688 14.2812C35.9688 14.4375 35.9375 14.4687 35.8437 14.625L34.0625 17.25L32.0625 14.25C32.0312 14.2187 31.9688 14.0938 31.9688 14.0312C31.9688 13.8438 32.3125 13.5938 32.9688 13.5625V13.0938C32.4375 13.125 31.3125 13.125 30.7188 13.125C30.25 13.125 29.2813 13.125 28.6875 13.0938V13.5625H28.9687C29.8125 13.5625 30.125 13.6562 30.4063 14.0937L33.25 18.4062L30.7188 22.1562C30.5 22.4688 30.0312 23.1875 28.4688 23.1875V23.6562H32.1875V23.1875C31.4688 23.1875 31.2188 22.75 31.2188 22.4688C31.2188 22.3438 31.25 22.2812 31.375 22.0937L33.5625 18.8437L36.0313 22.5625C36.0625 22.625 36.0938 22.6875 36.0938 22.7187C36.0938 22.9062 35.75 23.1562 35.0938 23.1875V23.6562C35.625 23.625 36.7813 23.625 37.3438 23.625C38 23.625 38.7188 23.625 39.375 23.6562V23.1875H39.0938C38.2812 23.1875 37.9688 23.125 37.625 22.625L34.3438 17.6875Z" fill="black"/>
</svg>
