<svg width="40" height="40" viewBox="0 0 40 40" fill="none" xmlns="http://www.w3.org/2000/svg">
<path d="M3.73414 7.60969C1.91039 7.60969 0.416016 9.13062 0.416016 10.9475V29.0544C0.416016 30.8713 1.91039 32.3922 3.73383 32.3922H36.2657C38.0891 32.3922 39.5835 30.8713 39.5835 29.0544V10.9478C39.5835 9.13094 38.0888 7.61 36.2657 7.61H4.65539L4.65477 7.60938L3.73414 7.60969ZM3.73195 10.5919H36.2657C36.461 10.5919 36.602 10.7241 36.602 10.9481V29.0544C36.602 29.2784 36.4604 29.4106 36.2657 29.4106H3.73383C3.53914 29.4106 3.39758 29.2784 3.39758 29.0544V10.9475C3.39758 10.7241 3.53852 10.5928 3.73195 10.5919Z" fill="black"/>
<path d="M6.47559 26.2812V13.7188H10.1315L13.7868 18.3375L17.4409 13.7188H21.0959V26.2812H17.4409V19.0762L13.7865 23.695L10.1309 19.0762V26.2812H6.47559ZM29.3206 26.2812L23.8378 20.1847H27.4931V13.7188H31.1487V20.1844H34.8043L29.3206 26.2812Z" fill="black"/>
</svg>
