<svg width="40" height="40" viewBox="0 0 40 40" fill="none" xmlns="http://www.w3.org/2000/svg">
<path fill-rule="evenodd" clip-rule="evenodd" d="M27.512 13.3789C28.0136 14.8298 28.3748 16.3111 28.4936 17.8464C28.6411 19.7511 28.5736 21.6423 28.172 23.5158C28.1611 23.5673 28.1379 23.6158 28.1207 23.6658C27.9948 23.6661 27.8664 23.6505 27.7432 23.6695C26.7029 23.833 25.6636 24.0023 24.6242 24.1708C23.5498 24.3448 22.4739 24.512 21.4014 24.698C21.0214 24.7636 20.5511 24.6852 20.3976 25.2108C20.3932 25.2252 20.3495 25.2277 20.3242 25.2358L20.3761 22.0948L20.3232 14.5161L20.8239 14.4302C21.6426 14.2961 22.4614 14.1602 23.2807 14.0298C24.2586 13.8745 25.2373 13.7236 26.2157 13.572C26.6473 13.5048 27.0795 13.4433 27.512 13.3789Z" fill="#439934"/>
<path fill-rule="evenodd" clip-rule="evenodd" d="M19.2899 34.3927C18.7617 33.9387 18.2152 33.5046 17.7089 33.0271C14.9849 30.4577 12.9924 27.4337 12.0111 23.7877C11.7408 22.7843 11.5605 21.7646 11.5027 20.7277C11.4621 20.0021 11.4033 19.2699 11.4546 18.548C11.5911 16.628 11.8686 14.7265 12.4317 12.8771L12.4627 12.834C12.5174 12.9068 12.5961 12.9712 12.6239 13.0534C13.1736 14.6721 13.7192 16.2921 14.2621 17.913C15.9677 23.0068 17.6711 28.1018 19.3796 33.1943C19.413 33.2937 19.4996 33.3752 19.5617 33.4649L19.2899 34.3927Z" fill="#45A538"/>
<path fill-rule="evenodd" clip-rule="evenodd" d="M27.5116 13.3787C27.0791 13.443 26.6466 13.5046 26.215 13.5712C25.2366 13.7227 24.2578 13.8737 23.28 14.029C22.4606 14.1593 21.6419 14.2952 20.8231 14.4293L20.3225 14.5152L20.3188 14.1887C20.3022 13.9202 20.2738 13.6521 20.2706 13.3837C20.2491 11.6718 20.2356 9.95992 20.2144 8.24805C20.2013 7.17648 20.1816 6.10523 20.1597 5.03398C20.1463 4.36836 20.1319 3.70242 20.1019 3.03773C20.0856 2.68055 20.0281 2.32523 20.0047 1.96805C19.9916 1.76273 20.0097 1.55586 20.0138 1.34961C20.2691 1.8443 20.5188 2.34273 20.7813 2.83367C21.1959 3.60992 21.8566 4.1818 22.4513 4.80586C24.8022 7.27211 26.4713 10.1396 27.5116 13.3787Z" fill="#46A037"/>
<path fill-rule="evenodd" clip-rule="evenodd" d="M20.3239 25.236C20.3493 25.2279 20.3933 25.2254 20.3974 25.211C20.5508 24.6854 21.0211 24.7638 21.4011 24.6982C22.4736 24.5126 23.5496 24.3451 24.6239 24.171C25.6633 24.0026 26.7027 23.8332 27.743 23.6698C27.8661 23.6504 27.9946 23.6663 28.1205 23.666C27.9261 24.3598 27.773 25.0685 27.5264 25.7432C27.2464 26.5085 26.9077 27.2554 26.548 27.9876C26.0095 29.0797 25.3431 30.1038 24.5627 31.0385C23.963 31.7598 23.2946 32.4263 22.6246 33.0848C22.2543 33.4488 21.8177 33.7454 21.4114 34.0726L21.3061 34.0007L20.9268 33.6763L20.5343 32.816C20.2662 31.8124 20.1199 30.7802 20.0986 29.7417L20.1058 29.5663L20.1593 28.8082C20.1771 28.5495 20.2008 28.291 20.2118 28.0317C20.2521 27.0998 20.2871 26.1679 20.3239 25.236Z" fill="#409433"/>
<path fill-rule="evenodd" clip-rule="evenodd" d="M20.3235 25.2356C20.2866 26.1675 20.2516 27.0994 20.2119 28.0316C20.201 28.2909 20.1772 28.5494 20.1594 28.8081L19.9204 28.8984C19.3894 27.3353 18.8582 25.7887 18.3385 24.2381C17.4791 21.6728 16.63 19.1034 15.7719 16.5375C15.0788 14.4664 14.3809 12.3969 13.6782 10.3291C13.6454 10.2322 13.551 10.1566 13.4854 10.0709L15.0154 7.25781C15.0679 7.34906 15.1372 7.43437 15.1704 7.5325C15.879 9.62691 16.584 11.7225 17.2854 13.8194C18.1966 16.5475 19.1022 19.2778 20.0129 22.0063C20.0491 22.1153 20.1091 22.2159 20.1663 22.3381L20.3757 22.0944L20.3235 25.2356Z" fill="#4FAA41"/>
<path fill-rule="evenodd" clip-rule="evenodd" d="M13.4864 10.0703C13.552 10.1559 13.6461 10.2316 13.6792 10.3284C14.3819 12.3963 15.0798 14.4658 15.7729 16.5369C16.6311 19.1028 17.4801 21.6722 18.3395 24.2375C18.8589 25.7878 19.3901 27.3347 19.9214 28.8978L20.1604 28.8075L20.107 29.5656L20.0586 29.7403C19.9754 30.5703 19.9054 31.4022 19.8042 32.2303C19.7532 32.6453 19.6451 33.0528 19.5629 33.4637C19.5011 33.3741 19.4142 33.2925 19.3807 33.1931C17.6723 28.1003 15.9689 23.0056 14.2632 17.9119C13.7206 16.2908 13.1746 14.6709 12.6251 13.0522C12.5973 12.97 12.5189 12.9056 12.4639 12.8328L13.4864 10.0703Z" fill="#4AA73C"/>
<path fill-rule="evenodd" clip-rule="evenodd" d="M20.3759 22.0952L20.1666 22.3389C20.1094 22.2167 20.0494 22.1158 20.0131 22.007C19.1028 19.2786 18.1969 16.5483 17.2856 13.8202C16.5842 11.7233 15.8792 9.62769 15.1706 7.53328C15.1378 7.43516 15.0684 7.34953 15.0156 7.25859L16.9078 4.76953C16.9675 4.84922 17.0525 4.92016 17.0834 5.00984C17.6088 6.54766 18.1294 8.08734 18.6469 9.62797C19.1303 11.0667 19.6066 12.5077 20.0956 13.9445C20.1284 14.0408 20.2425 14.1089 20.3187 14.1902L20.3225 14.5167C20.3406 17.0423 20.3584 19.5689 20.3759 22.0952Z" fill="#57AE47"/>
<path fill-rule="evenodd" clip-rule="evenodd" d="M20.3191 14.1889C20.2429 14.1077 20.1288 14.0395 20.096 13.9433C19.607 12.5064 19.1307 11.0655 18.6473 9.62672C18.1298 8.08609 17.6091 6.54672 17.0838 5.00859C17.0529 4.91891 16.9679 4.84797 16.9082 4.76828C17.5235 4.16578 18.1198 3.54172 18.7598 2.96703C19.3288 2.45641 19.7863 1.90891 19.8073 1.10203C19.8082 1.06859 19.8257 1.03516 19.8526 0.941406L20.0148 1.34953C20.0107 1.55609 19.9923 1.76266 20.0057 1.96797C20.0291 2.32516 20.0866 2.68047 20.1029 3.03766C20.1329 3.70234 20.1473 4.36828 20.1607 5.03391C20.1823 6.10516 20.202 7.17641 20.2154 8.24797C20.2363 9.95984 20.2501 11.6717 20.2716 13.3836C20.2741 13.6527 20.3023 13.9205 20.3191 14.1889Z" fill="#60B24F"/>
<path fill-rule="evenodd" clip-rule="evenodd" d="M19.5619 33.4648C19.6441 33.0539 19.7522 32.6461 19.8032 32.2314C19.9047 31.4036 19.9744 30.5714 20.0575 29.7414L20.0782 29.7383L20.0988 29.7417C20.1201 30.7803 20.2663 31.8125 20.5344 32.8161C20.4794 32.8886 20.4016 32.9533 20.3725 33.0352C20.1454 33.6758 19.9313 34.3214 19.7029 34.962C19.6716 35.0495 19.5847 35.1177 19.5235 35.1945L19.29 34.3927L19.5619 33.4648Z" fill="#A9AA88"/>
<path fill-rule="evenodd" clip-rule="evenodd" d="M19.5234 35.1948C19.5847 35.118 19.6719 35.0498 19.7028 34.9623C19.9312 34.3217 20.1456 33.6764 20.3725 33.0355C20.4016 32.9536 20.4791 32.8889 20.5344 32.8164L20.9266 33.677C20.8491 33.787 20.7422 33.8861 20.6991 34.0086L19.9478 36.2145C19.9169 36.303 19.8112 36.3655 19.7406 36.4402L19.5234 35.1948Z" fill="#B6B598"/>
<path fill-rule="evenodd" clip-rule="evenodd" d="M19.7412 36.4389C19.8121 36.3645 19.9175 36.3017 19.9484 36.2133L20.6996 34.0073C20.7425 33.8852 20.8496 33.7858 20.9271 33.6758L21.3068 33.9998C21.1234 34.1811 21.0215 34.3905 21.0828 34.6552L20.9675 35.0327C20.915 35.0973 20.839 35.1536 20.8131 35.2277C20.5509 35.9786 20.3006 36.7336 20.0365 37.4845C20.0031 37.5798 19.9103 37.6545 19.8446 37.7383C19.8106 37.3048 19.7759 36.8723 19.7412 36.4389Z" fill="#C2C1A7"/>
<path fill-rule="evenodd" clip-rule="evenodd" d="M19.8444 37.7388C19.9097 37.6548 20.0025 37.5801 20.0362 37.4851C20.3003 36.7345 20.5506 35.9795 20.8128 35.2282C20.8387 35.1545 20.9144 35.0979 20.9672 35.0332L20.8081 36.766C20.7656 36.8151 20.7041 36.8579 20.6837 36.9151C20.5041 37.4195 20.3347 37.9276 20.1544 38.432C20.1172 38.536 20.0459 38.6279 19.9903 38.7251C19.9409 38.6604 19.8525 38.5979 19.8484 38.5304C19.8325 38.2676 19.8434 38.0029 19.8444 37.7388Z" fill="#CECDB7"/>
<path fill-rule="evenodd" clip-rule="evenodd" d="M19.9902 38.7247C20.0459 38.6272 20.1171 38.5353 20.1543 38.4316C20.3349 37.9275 20.504 37.4194 20.6837 36.9147C20.704 36.8575 20.7659 36.815 20.808 36.7656L20.8118 37.9031L20.4312 38.8794L19.9902 38.7247Z" fill="#DBDAC7"/>
<path fill-rule="evenodd" clip-rule="evenodd" d="M20.4316 38.8805L20.8123 37.9043L20.8907 39.0593L20.4316 38.8805Z" fill="#EBE9DC"/>
<path fill-rule="evenodd" clip-rule="evenodd" d="M21.0823 34.6553C21.0211 34.3906 21.1226 34.1809 21.3064 34L21.4117 34.0719L21.0823 34.6553Z" fill="#CECDB7"/>
<path fill-rule="evenodd" clip-rule="evenodd" d="M20.0989 29.7414L20.0782 29.738L20.0576 29.7411L20.1061 29.5664L20.0989 29.7414Z" fill="#4FAA41"/>
</svg>
