<svg width="40" height="40" viewBox="0 0 40 40" fill="none" xmlns="http://www.w3.org/2000/svg">
<g clip-path="url(#clip0_272_3866)">
<path d="M36.8201 30.3456C34.6454 30.2914 32.9599 30.5089 31.5463 31.1069C31.1385 31.2698 30.486 31.27 30.4317 31.7866C30.6492 32.0041 30.6763 32.3575 30.8667 32.6564C31.1932 33.2 31.7637 33.9341 32.2803 34.3148C32.851 34.7497 33.4221 35.1845 34.0199 35.5651C35.0803 36.2176 36.2765 36.5981 37.3095 37.2506C37.9078 37.6309 38.5054 38.1206 39.1035 38.5283C39.4026 38.7455 39.5928 39.0992 39.9735 39.235V39.1536C39.7831 38.9087 39.7287 38.5555 39.5385 38.2836C39.267 38.0117 38.9948 37.767 38.7229 37.4951C37.9346 36.4351 36.956 35.5108 35.8959 34.7497C35.026 34.1516 33.1229 33.3361 32.7696 32.3301C32.7696 32.3301 32.7423 32.3031 32.7153 32.2759C33.3132 32.2215 34.0199 32.0041 34.591 31.8409C35.5153 31.5961 36.3579 31.6506 37.3095 31.4059C37.7443 31.2972 38.1793 31.1612 38.6142 31.0253V30.7808C38.1251 30.2914 37.7717 29.639 37.2551 29.1769C35.8687 27.9805 34.3462 26.8117 32.7696 25.8331C31.9268 25.2894 30.8393 24.9359 29.9423 24.4739C29.6164 24.3106 29.0724 24.2292 28.8823 23.9573C28.3928 23.3594 28.1209 22.5711 27.7676 21.8642C26.9795 20.3689 26.2181 18.7108 25.5384 17.1342C25.0493 16.0739 24.7503 15.0136 24.1521 14.0351C21.3521 9.41374 18.3074 6.61374 13.6318 3.86796C12.6259 3.29717 11.4298 3.05249 10.1521 2.75358C9.47275 2.72624 8.79291 2.67202 8.11338 2.64468C7.67838 2.45436 7.24338 1.93796 6.86276 1.69327C5.31354 0.714519 1.31713 -1.40564 0.175412 1.39436C-0.558651 3.16124 1.26291 4.90093 1.88791 5.79827C2.35041 6.42343 2.94822 7.13014 3.27447 7.83702C3.46479 8.29889 3.51901 8.78858 3.70932 9.2778C4.14447 10.4736 4.55197 11.8059 5.12307 12.9206C5.42213 13.4914 5.74822 14.0894 6.12885 14.6059C6.34635 14.9048 6.72682 15.0409 6.80854 15.5301C6.42807 16.0739 6.40072 16.8895 6.18307 17.569C5.20447 20.6409 5.58526 24.4467 6.97151 26.703C7.40635 27.3823 8.43947 28.878 9.82588 28.3069C11.0493 27.8176 10.7774 26.2681 11.1306 24.9089C11.2124 24.5823 11.1581 24.3651 11.321 24.1476V24.2022C11.7017 24.9631 12.0821 25.6973 12.4356 26.4584C13.2784 27.7903 14.7462 29.1769 15.9695 30.1012C16.6221 30.5903 17.1385 31.4331 17.9542 31.7322V31.6505H17.8996C17.7365 31.4058 17.4918 31.2972 17.2745 31.1067C16.7853 30.6176 16.2413 30.0195 15.8609 29.4758C14.7193 27.9533 13.7132 26.268 12.8162 24.5281C12.3813 23.6856 12.0006 22.7612 11.6473 21.9186C11.484 21.592 11.484 21.103 11.2123 20.94C10.8045 21.538 10.2065 22.0545 9.90744 22.7884C9.39119 23.9573 9.33666 25.3981 9.14635 26.8931C9.0376 26.9206 9.09182 26.8931 9.03744 26.9478C8.16776 26.73 7.86869 25.8331 7.54229 25.0719C6.72666 23.1419 6.59072 20.0428 7.29776 17.8137C7.48807 17.2428 8.30369 15.4487 7.97744 14.905C7.81432 14.3884 7.27041 14.0894 6.97151 13.6817C6.61822 13.1651 6.23744 12.513 5.99291 11.9419C5.34041 10.4195 5.01416 8.73405 4.30744 7.21171C3.98119 6.50483 3.41057 5.77108 2.94822 5.11858C2.43182 4.38468 1.86088 3.86796 1.45307 2.99811C1.31729 2.69921 1.12682 2.20983 1.34432 1.88358C1.39869 1.66608 1.50729 1.58468 1.72494 1.5303C2.07838 1.23108 3.08432 1.61171 3.43744 1.77483C4.44338 2.18233 5.28604 2.56327 6.12885 3.13405C6.50932 3.40593 6.91713 3.92249 7.40635 4.05842H7.97729C8.84729 4.24858 9.82572 4.1128 10.6413 4.35733C12.0823 4.81936 13.387 5.49905 14.556 6.23311C18.1173 8.48936 21.0529 11.6972 23.0376 15.5301C23.3638 16.1551 23.4996 16.7264 23.7987 17.3786C24.3698 18.7108 25.0765 20.07 25.6471 21.3748C26.2181 22.6523 26.7617 23.9573 27.5773 25.0176C27.9851 25.5883 29.616 25.8875 30.3501 26.1866C30.8939 26.4311 31.7367 26.6487 32.2259 26.9476C33.1501 27.5183 34.0743 28.1711 34.9443 28.7961C35.3793 29.1223 36.7384 29.802 36.8201 30.3456Z" fill="#00546B"/>
<path d="M9.09191 6.72266C8.62988 6.72266 8.30379 6.77734 7.97754 6.85875V6.91313H8.03191C8.24957 7.34813 8.62988 7.64719 8.9016 8.02766C9.11926 8.4625 9.30941 8.89766 9.52707 9.33266C9.5541 9.30531 9.58129 9.27828 9.58129 9.27828C9.96207 9.00625 10.1522 8.57141 10.1522 7.91891C9.9891 7.72875 9.96191 7.53844 9.82598 7.34813C9.66301 7.07609 9.30941 6.94031 9.09191 6.72266Z" fill="#00546B"/>
</g>
<defs>
<clipPath id="clip0_272_3866">
<rect width="40" height="39.375" fill="white"/>
</clipPath>
</defs>
</svg>
