<svg width="40" height="40" viewBox="0 0 40 40" fill="none" xmlns="http://www.w3.org/2000/svg">
<path d="M9.84112 14.4475H17.0999V15.0239H10.5117V19.3651H16.7058V19.9416H10.5058V24.7063H17.1764V25.2828H9.84112V14.4475ZM17.747 14.4475H18.5176L21.9352 19.2122L25.4294 14.4475L30.1764 8.39453L22.3764 19.7181L26.3999 25.2887H25.5999L21.9411 20.2181L18.2705 25.2887H17.4823L21.5352 19.7181L17.747 14.4475ZM26.6823 15.0239V14.4475H34.9529V15.0239H31.1411V25.2828H30.4764V15.0239H26.6823ZM0.764648 14.4475H1.59406L13.0588 31.6063L8.32347 25.2887L1.45877 15.271L1.42935 25.2887H0.764648V14.4475ZM34.8823 24.5357C34.747 24.5357 34.647 24.4298 34.647 24.2945C34.647 24.1592 34.747 24.0534 34.8823 24.0534C35.0176 24.0534 35.1176 24.1592 35.1176 24.2945C35.1176 24.4298 35.0235 24.5357 34.8823 24.5357ZM35.5352 23.9004H35.8941C35.8999 24.0945 36.0411 24.2239 36.247 24.2239C36.4764 24.2239 36.6117 24.0828 36.6117 23.8239V22.171H36.9764V23.8239C36.9764 24.2945 36.7058 24.5651 36.2529 24.5651C35.8294 24.5651 35.5352 24.3004 35.5352 23.9004ZM37.447 23.8769H37.8058C37.8352 24.1004 38.0529 24.2416 38.3647 24.2416C38.6588 24.2416 38.8705 24.0886 38.8705 23.8828C38.8705 23.7063 38.7352 23.6004 38.4235 23.5239L38.1235 23.4534C37.6999 23.3534 37.5058 23.1534 37.5058 22.8063C37.5058 22.3886 37.847 22.1122 38.3529 22.1122C38.8294 22.1122 39.1705 22.3886 39.1941 22.7828H38.8411C38.8058 22.5651 38.6176 22.4357 38.347 22.4357C38.0588 22.4357 37.8705 22.571 37.8705 22.7828C37.8705 22.9475 37.9941 23.0475 38.2999 23.1181L38.5588 23.1828C39.0352 23.2945 39.2352 23.4886 39.2352 23.8416C39.2352 24.2886 38.8882 24.571 38.3352 24.571C37.8176 24.5651 37.4705 24.2945 37.447 23.8769Z" fill="black"/>
</svg>
