<svg width="40" height="40" viewBox="0 0 40 40" fill="none" xmlns="http://www.w3.org/2000/svg">
<path d="M7.65625 15.7812C7.1875 15.7812 6.875 16.1563 6.875 16.625V21.0313L1.90625 16.0312C1.65625 15.7812 1.21875 15.7188 0.90625 15.8438C0.59375 15.9688 0.3125 16.2813 0.3125 16.625V23.0938C0.3125 23.5625 0.78125 23.9375 1.25 23.9375C1.71875 23.9375 2.1875 23.5625 2.1875 23.0938V18.6875L7.21875 23.6875C7.375 23.8438 7.59375 23.9375 7.8125 23.9375C7.90625 23.9375 7.9375 23.9063 8.03125 23.875C8.34375 23.75 8.4375 23.4375 8.4375 23.0938V16.6562C8.4375 16.1875 8.125 15.7812 7.65625 15.7812ZM13.8125 19.4687C13.375 19.4687 12.9688 19.9062 12.9688 20.3437C12.9688 20.7812 13.375 21.2188 13.8125 21.2188L15.875 21.3438L15.4062 22.5H12.75L11.4375 20.0312L12.7812 17.5H15.625L16.2812 18.75H18L16.875 16.2812L16.625 15.9375H11.75L11.5312 16.3125L9.6875 19.5312L9.46875 19.9375L9.6875 20.3437L11.5 23.5625L11.75 24.0625H16.4688L16.6875 23.5313L18.0312 20.7188L18.625 19.375H17.25L13.8125 19.4687ZM20.3125 15.7812C19.875 15.7812 19.375 16.1875 19.375 16.625V18.75H21.25V16.6562C21.25 16.1875 20.75 15.7812 20.3125 15.7812ZM29.8125 15.875C29.5 15.75 29.0625 15.8125 28.8438 16.0625L23.75 21.0625V16.6562C23.75 16.1875 23.4375 15.8125 22.9688 15.8125C22.5 15.8125 22.1875 16.1875 22.1875 16.6562V23.125C22.1875 23.4688 22.4062 23.7812 22.7188 23.9062C22.8125 23.9375 22.9375 23.9687 23.0312 23.9687C23.25 23.9687 23.5312 23.875 23.6875 23.7188L28.75 18.7188V23.125C28.75 23.5938 29.0625 23.9687 29.5312 23.9687C30 23.9687 30.3125 23.5938 30.3125 23.125V16.6562C30.3125 16.3125 30.125 16 29.8125 15.875ZM36.625 19.875L39.25 17.25C39.5938 16.9063 39.5938 16.375 39.25 16.0625C38.9062 15.7188 38.375 15.7188 38.0625 16.0625L35.4375 18.6875L32.8125 16.0625C32.4688 15.7188 31.9375 15.7188 31.625 16.0625C31.2812 16.4063 31.2812 16.9375 31.625 17.25L34.25 19.875L31.625 22.5C31.2812 22.8438 31.2812 23.375 31.625 23.6875C31.7812 23.8438 32 23.9375 32.2188 23.9375C32.4375 23.9375 32.6562 23.8438 32.8125 23.6875L35.4375 21.0625L38.0625 23.6875C38.2188 23.8438 38.4375 23.9375 38.6562 23.9375C38.875 23.9375 39.0938 23.8438 39.25 23.6875C39.5938 23.3438 39.5938 22.8125 39.25 22.5L36.625 19.875ZM19.375 23.0938C19.375 23.5313 19.8438 23.9375 20.3125 23.9375C20.75 23.9375 21.25 23.5313 21.25 23.0938V19.375H19.375V23.0938Z" fill="#009900"/>
</svg>
