<svg width="40" height="40" viewBox="0 0 40 40" fill="none" xmlns="http://www.w3.org/2000/svg">
<path d="M35.2409 9.48023L21.4606 1.47867C20.5916 0.983672 19.46 0.983672 18.5841 1.47867L4.65656 9.48023C3.75969 9.99617 3.125 10.9659 3.125 12.003V27.9849C3.125 29.0221 3.77625 29.9921 4.67313 30.5109L8.35281 32.6009C10.1116 33.4671 10.7331 33.4671 11.5334 33.4671C14.1375 33.4671 15.625 31.8924 15.625 29.1459V13.3677C15.625 13.1449 15.5091 12.8134 15.2903 12.8134H13.5331C13.3106 12.8134 12.8125 13.1449 12.8125 13.3674V29.1455C12.8125 30.363 11.7112 31.5746 9.65312 30.5455L5.85094 28.354C5.71844 28.2821 5.625 28.1374 5.625 27.9849V12.003C5.625 11.8524 5.79844 11.7012 5.93188 11.624L19.8144 3.63617C19.9441 3.56273 20.1347 3.56273 20.2641 3.63617L33.9772 11.6221C34.1084 11.7012 34.0622 11.8477 34.0622 12.003V27.9849C34.0622 28.1374 34.1194 28.2859 33.9897 28.3593L20.2128 36.3518C20.0947 36.4227 19.9481 36.4227 19.8187 36.3518L16.2853 34.2427C16.1788 34.1809 16.0522 34.1587 15.95 34.2159C14.9669 34.773 14.7856 34.8471 13.8634 35.1668C13.6366 35.2459 13.3019 35.383 13.9916 35.7696L18.6159 38.5052C19.0574 38.7602 19.5583 38.8945 20.0681 38.8946C20.5813 38.8946 21.0837 38.7615 21.5266 38.5052L35.2406 30.5109C36.1375 29.9884 36.5625 29.0221 36.5625 27.9849V12.003C36.5625 10.9659 36.1375 9.99867 35.2409 9.48023ZM24.3469 25.4524C20.6825 25.4524 19.8753 24.4415 19.6063 22.6193C19.575 22.423 19.4084 22.1884 19.2087 22.1884H17.4178C17.1962 22.1884 17.0181 22.4571 17.0181 22.6777C17.0181 25.0109 18.2866 27.8377 24.3472 27.8377C28.7344 27.8377 31.2497 26.133 31.2497 23.1162C31.2497 20.1249 29.2288 19.3399 24.9741 18.7768C20.6734 18.2084 20.2366 17.9212 20.2366 16.9137C20.2366 16.083 20.6066 14.9752 23.7909 14.9752C26.6362 14.9752 27.685 15.5859 28.1166 17.5037C28.1534 17.684 28.3181 17.8134 28.5041 17.8134H30.3022C30.4128 17.8134 30.5184 17.7687 30.5959 17.6896C30.6709 17.6046 30.7106 17.498 30.7006 17.3837C30.4222 14.0812 28.2281 12.5421 23.7906 12.5421C19.8434 12.5421 17.4888 14.209 17.4888 17.003C17.4888 20.0337 19.8316 20.8712 23.6206 21.2459C28.1534 21.6902 28.5059 22.3527 28.5059 23.2443C28.5059 24.7927 27.2628 25.4524 24.3469 25.4524Z" fill="#83CD29"/>
</svg>
