<svg width="40" height="40" viewBox="0 0 40 40" fill="none" xmlns="http://www.w3.org/2000/svg">
<g clip-path="url(#clip0_272_3853)">
<path d="M35.3492 8.14633C28.8026 -0.331171 16.6223 -1.89617 8.14448 4.65164C-0.332079 11.1995 -1.89552 23.3798 4.6523 31.8563C11.2014 40.3326 23.3826 41.8951 31.8579 35.346C40.331 28.7982 41.8948 16.6216 35.3492 8.14633Z" fill="#F37036"/>
<path d="M28.4618 7.55034C27.7942 7.60369 27.1611 7.86936 26.6553 8.30846C26.0632 8.82248 25.6853 9.53977 25.5962 10.3188C25.5071 11.0978 25.7133 11.8818 26.174 12.5163C26.6341 13.151 27.3154 13.5902 28.0834 13.7473C28.8514 13.9043 29.6504 13.7678 30.3228 13.3647H30.3234L30.3722 13.4135C30.5936 13.2865 30.7996 13.1345 30.9862 12.9603C31.5617 12.3515 31.8783 11.543 31.8692 10.7053C31.8601 9.86762 31.526 9.06619 30.9375 8.47002V8.4694L28.1737 11.216L28.125 11.1675L30.8887 8.41971C30.5688 8.11126 30.187 7.87431 29.7686 7.72454C29.3503 7.57477 28.9048 7.5156 28.4618 7.55096V7.55034ZM24.8231 12.0463C23.4981 12.0441 21.3347 13.546 16.0522 18.8285L16.0784 18.8553C16.0497 18.8453 16.0206 18.8444 16.0206 18.8444L14.0318 20.8156C13.9808 20.8642 13.947 20.9282 13.9356 20.9977C13.9242 21.0673 13.9358 21.1386 13.9687 21.201C14.0016 21.2633 14.054 21.3132 14.1178 21.343C14.1817 21.3729 14.2535 21.381 14.3225 21.3663L17.7331 20.6388C17.7481 20.6246 17.7582 20.606 17.7618 20.5856L17.8375 20.6638L16.675 21.8169H16.6187L9.71684 28.7731L11.9312 30.9056C11.9931 30.9615 12.0713 30.9961 12.1542 31.0045C12.2372 31.0128 12.3206 30.9945 12.3925 30.9522C12.4649 30.9102 12.523 30.8472 12.5589 30.7716C12.5949 30.6959 12.6072 30.6112 12.594 30.5285L12.2706 29.1222C12.2504 29.0939 12.2396 29.0601 12.2396 29.0253C12.2396 28.9906 12.2504 28.9567 12.2706 28.9285C15.2938 27.4873 18.1051 25.6385 20.6262 23.4338L19.209 22.016L19.2359 22.0116L18.3953 21.1713L18.449 21.1169L18.5059 21.175L18.4765 21.2035L20.7068 23.4825V23.4816C24.9818 19.4335 28.0162 16.1794 27.2272 13.9894C27.1912 13.7275 27.0696 13.4849 26.8812 13.2994V13.3006C26.8334 13.265 26.7829 13.233 26.7303 13.205C26.7043 13.1775 26.6815 13.1494 26.654 13.1225L26.6334 13.1431C26.5755 13.1078 26.5146 13.0774 26.4515 13.0525L26.5418 12.9613C25.9806 12.4613 25.5168 12.0475 24.8231 12.0456V12.0463ZM9.66872 28.8147L8.05278 30.431V30.4322C7.9948 30.4681 7.94972 30.5215 7.92406 30.5847C7.89839 30.6479 7.89345 30.7176 7.90997 30.7838C7.92591 30.8499 7.9623 30.9094 8.01398 30.9536C8.06565 30.9979 8.12997 31.0247 8.19778 31.0303L12.1578 31.3038L9.66872 28.8147Z" fill="white"/>
<path d="M28.7342 7.28516C27.8272 7.28403 26.9562 7.63988 26.3095 8.27578C25.8493 8.74672 25.5343 9.34003 25.4019 9.98501C25.2694 10.63 25.3252 11.2994 25.5626 11.9136C24.0811 11.2792 22.0767 12.3855 15.842 18.6189C15.8376 18.6285 15.8338 18.6383 15.8305 18.6483C15.8177 18.6541 15.8053 18.6605 15.7933 18.6677L13.8217 20.6564C13.7272 20.7492 13.6651 20.8699 13.6447 21.0007C13.6243 21.1316 13.6466 21.2655 13.7083 21.3827C13.7633 21.4754 13.8413 21.5523 13.9348 21.6062C14.0282 21.66 14.1339 21.6889 14.2417 21.6902L14.3395 21.6267L16.972 21.0652L15.7126 22.3361C15.7053 22.3528 15.6996 22.3702 15.6958 22.388L9.52389 28.5752C9.49928 28.5959 9.47891 28.6211 9.46389 28.6495L7.87451 30.2402C7.7953 30.3238 7.74117 30.428 7.7183 30.5408C7.69543 30.6537 7.70472 30.7707 7.74514 30.8786C7.78658 30.9858 7.85685 31.0794 7.94817 31.1492C8.03949 31.219 8.14832 31.2621 8.26264 31.2739L12.2058 31.5489C12.273 31.5253 12.3303 31.4796 12.3683 31.4192C12.4022 31.3721 12.4204 31.3155 12.4204 31.2575C12.4204 31.1995 12.4022 31.1429 12.3683 31.0958L12.3601 31.088C12.4452 31.0433 12.5202 30.9816 12.5805 30.9067C12.6438 30.8245 12.688 30.7293 12.71 30.6279C12.7319 30.5265 12.731 30.4215 12.7073 30.3205L12.3998 29.012C15.35 27.6021 18.1141 25.8323 20.6292 23.743C20.6536 23.7569 20.6796 23.7677 20.7067 23.7752C20.7861 23.7692 20.8604 23.7352 20.9167 23.6789C25.1511 19.6695 27.6401 16.922 27.6401 14.7408C27.6493 14.4382 27.6037 14.1365 27.5054 13.8502C27.887 14.0084 28.2941 14.0963 28.707 14.1095L28.7023 14.1108C29.271 14.0934 29.8269 13.9379 30.322 13.6577C30.3224 13.6578 30.3228 13.6579 30.3233 13.658C30.3874 13.6772 30.4564 13.671 30.5161 13.6408C30.755 13.5001 30.9728 13.3263 31.163 13.1245C31.4852 12.8083 31.7412 12.4311 31.916 12.0148C32.0908 11.5986 32.181 11.1516 32.1811 10.7002C32.181 10.2487 32.0909 9.80179 31.9162 9.38553C31.7414 8.96927 31.4855 8.59201 31.1633 8.27578C31.1518 8.26533 31.1394 8.25582 31.1264 8.24735C30.4831 7.62967 29.6257 7.28497 28.7339 7.28547L28.7342 7.28516ZM28.707 7.83891C29.3385 7.84268 29.9515 8.05271 30.4526 8.43703L27.9314 10.9736C27.9227 10.9832 27.9148 10.9934 27.9076 11.0042C27.8622 11.0502 27.8356 11.1115 27.833 11.1761C27.833 11.2151 27.8418 11.2536 27.8587 11.2888C27.8756 11.324 27.9003 11.3549 27.9308 11.3792H27.9314L29.8376 13.2855C29.3158 13.513 28.7375 13.5777 28.1783 13.471C27.6192 13.3643 27.1053 13.0913 26.7039 12.6877C25.8958 11.8752 25.6614 10.6552 26.0936 9.59672C26.5258 8.53735 27.5561 7.84516 28.707 7.83891ZM30.932 8.91141C31.3443 9.41018 31.569 10.0375 31.5673 10.6845C31.5662 11.4426 31.264 12.1692 30.7273 12.7045C30.6197 12.8058 30.5051 12.8992 30.3842 12.9842L28.8458 11.4695L28.5448 11.1686L28.6276 11.0858L30.9317 8.91078L30.932 8.91141ZM30.8176 10.2217C30.7611 10.2039 30.6999 10.2073 30.6458 10.2314C30.5921 10.2592 30.5517 10.307 30.5333 10.3645C30.5242 10.3932 30.5209 10.4235 30.5236 10.4534C30.5263 10.4834 30.5349 10.5126 30.5489 10.5392C30.6044 10.656 30.6263 10.7859 30.6121 10.9144C30.598 11.0429 30.5482 11.1649 30.4686 11.2667C30.4482 11.2864 30.4322 11.3101 30.4217 11.3364C30.4112 11.3627 30.4064 11.3909 30.4076 11.4192C30.4089 11.4767 30.4295 11.5317 30.4686 11.573C30.5102 11.5889 30.5563 11.5889 30.5979 11.573C30.6355 11.5823 30.6749 11.5813 30.712 11.5699C30.749 11.5585 30.7822 11.5372 30.8079 11.5083C30.9409 11.3452 31.0251 11.1479 31.0508 10.9391C31.0765 10.7303 31.0427 10.5184 30.9533 10.328V10.3292C30.9228 10.2779 30.8745 10.2397 30.8176 10.2217ZM24.7936 12.3227C25.1707 12.3352 25.5337 12.4696 25.8279 12.7058C25.5108 12.7514 25.217 12.8983 24.9901 13.1245L17.8629 20.2198L16.4642 18.8211C20.1604 15.1423 22.4204 13.2208 23.8254 12.5911C24.1148 12.4085 24.4515 12.3154 24.7936 12.3227ZM26.0326 13.2477C26.272 13.2477 26.5015 13.3425 26.6711 13.5114C26.7613 13.596 26.8325 13.6989 26.8799 13.8132C26.9272 13.9275 26.9497 14.0506 26.9458 14.1742C26.9417 14.2974 26.9122 14.4184 26.8593 14.5297C26.8063 14.641 26.731 14.7402 26.6379 14.8211L19.0598 21.4167L18.242 20.5989L25.3942 13.5114C25.5638 13.3426 25.7934 13.2476 26.0326 13.2477ZM26.9683 15.3408C26.4401 17.4352 23.6411 20.273 20.7223 23.0305L19.542 21.8514L26.9683 15.3408ZM16.052 19.2342L16.1376 19.3186L17.2354 20.4164L14.2261 21.0602L16.052 19.2342ZM17.8623 21.0592L17.8636 21.0605L18.2286 21.4339C18.2301 21.4427 18.232 21.4515 18.2342 21.4602L18.2586 21.4639L18.3361 21.5433L18.5923 21.8058L16.9095 22.012L17.8626 21.0589L17.8623 21.0592ZM19.0708 22.333L20.1889 23.4505C17.7165 25.5064 15.0034 27.2542 12.1092 28.6555C12.0152 28.7002 11.9397 28.7761 11.8954 28.8703C11.8511 28.9645 11.8409 29.0711 11.8664 29.172L12.1898 30.5783C12.2017 30.5948 12.2082 30.6146 12.2082 30.635C12.2082 30.6554 12.2017 30.6752 12.1898 30.6917C12.1721 30.7077 12.149 30.7165 12.1251 30.7165C12.1013 30.7165 12.0782 30.7077 12.0605 30.6917L10.1536 28.7692L16.0311 22.8055L19.0708 22.333ZM9.7167 29.1892L9.98826 29.4436L11.392 30.8473L8.26201 30.6448L9.7167 29.1892Z" fill="#F37036"/>
</g>
<defs>
<clipPath id="clip0_272_3853">
<rect width="40" height="40" fill="white"/>
</clipPath>
</defs>
</svg>
