<svg width="40" height="40" viewBox="0 0 40 40" fill="none" xmlns="http://www.w3.org/2000/svg">
<path d="M24.6846 24.2955L23.9174 25.6278C23.6862 26.0291 23.2583 26.2765 22.7952 26.2765H16.9175C16.4544 26.2765 16.0265 26.0291 15.7953 25.6278L15.028 24.2955H24.6846ZM26.8326 20.5657L25.4797 22.9148H14.2329L12.8801 20.5657H26.8326ZM25.5294 16.9185L26.8348 19.1852H12.8779L14.1833 16.9185H25.5294ZM22.7952 13.4707C23.2583 13.4707 23.6862 13.7181 23.9174 14.1194L24.7343 15.5379H14.9784L15.7953 14.1194C16.0265 13.7181 16.4544 13.4707 16.9175 13.4707H22.7952Z" fill="#00435B"/>
<path d="M8.36294 12.8519C7.71184 9.69469 7.57211 7.27316 7.99298 5.5148C8.24328 4.46902 8.70091 3.61589 9.39676 3.00037C10.1314 2.35054 11.0602 2.03167 12.1038 2.03167C13.8255 2.03167 15.6354 2.81678 17.5696 4.30827C18.3586 4.91662 19.1774 5.6499 20.0277 6.5085C20.0954 6.42137 20.1719 6.33918 20.2571 6.26322C22.6613 4.12082 24.6853 2.78972 26.4165 2.27649C27.4459 1.97132 28.4123 1.94225 29.2924 2.23842C30.2214 2.55106 30.9616 3.19731 31.4839 4.10251C32.3457 5.59642 32.573 7.55943 32.2517 9.98324C32.1207 10.9712 31.8968 12.0474 31.5804 13.2134C31.6998 13.2279 31.8195 13.2543 31.9379 13.2936C34.9882 14.3044 37.1481 15.3914 38.4558 16.6337C39.2338 17.3728 39.7419 18.1957 39.9256 19.1065C40.1194 20.0679 39.9304 21.0322 39.4087 21.9368C38.5485 23.4285 36.9667 24.605 34.7132 25.5369C33.8083 25.9111 32.7845 26.25 31.6407 26.5548C31.6929 26.6726 31.7334 26.7978 31.7604 26.9291C32.4116 30.0863 32.5513 32.5078 32.1304 34.2662C31.8801 35.3119 31.4225 36.1651 30.7266 36.7806C29.992 37.4304 29.0632 37.7493 28.0195 37.7493C26.2979 37.7493 24.488 36.9642 22.5538 35.4727C21.7564 34.8579 20.9286 34.1154 20.0685 33.245C19.98 33.3834 19.8714 33.5121 19.7429 33.6266C17.3387 35.769 15.3147 37.1001 13.5835 37.6133C12.5541 37.9185 11.5877 37.9476 10.7076 37.6514C9.7786 37.3388 9.03839 36.6925 8.51614 35.7873C7.65425 34.2934 7.42696 32.3304 7.7483 29.9066C7.88401 28.8829 8.1195 27.7645 8.45423 26.5496C8.32339 26.5363 8.19202 26.5087 8.0621 26.4656C5.0118 25.4548 2.85188 24.3678 1.54421 23.1255C0.766175 22.3864 0.258111 21.5635 0.0744495 20.6527C-0.119406 19.6913 0.0696182 18.7269 0.591253 17.8224C1.45153 16.3307 3.03334 15.1541 5.28682 14.2222C6.21863 13.8369 7.27657 13.489 8.46188 13.1772C8.41965 13.0739 8.3863 12.9651 8.36294 12.8519Z" fill="#002B3B"/>
<path d="M29.632 27.2391C29.9353 27.1853 30.2259 27.3798 30.2936 27.6781L30.2973 27.6958L30.3296 27.8636C31.3781 33.3756 30.6395 36.1316 28.1141 36.1316C25.6432 36.1316 22.4977 33.7799 18.6777 29.0765C18.5933 28.9726 18.5478 28.8425 18.5489 28.7086C18.5517 28.3968 18.802 28.145 19.1116 28.1383L19.1295 28.1382L19.3307 28.1396C20.9382 28.1483 22.5008 28.0923 24.0188 27.9714C25.8106 27.8288 27.6817 27.5847 29.632 27.2391ZM12.288 23.0726L12.2977 23.0889L12.3987 23.2651C13.2075 24.6713 14.0503 26.0061 14.9269 27.2692C15.9593 28.7568 17.1202 30.2628 18.4097 31.7871C18.6092 32.0229 18.5864 32.373 18.3614 32.5811L18.3468 32.5942L18.217 32.7059C13.9504 36.3616 11.1773 37.0915 9.89771 34.8953C8.64514 32.7456 9.09927 28.8369 11.2601 23.1692C11.3076 23.0446 11.3968 22.9404 11.5126 22.8744C11.7831 22.72 12.1261 22.8091 12.288 23.0726ZM31.797 14.9392L31.8145 14.9449L31.9751 15.0003C37.2415 16.8323 39.2423 18.8455 37.9776 21.0401C36.7407 23.1864 33.1448 24.7491 27.1899 25.7282C27.0571 25.75 26.9209 25.7247 26.8049 25.6564C26.5308 25.4954 26.4393 25.1426 26.6004 24.8686C27.4533 23.4178 28.2214 21.9742 28.9049 20.5379C29.6799 18.9089 30.4073 17.1605 31.087 15.2925C31.19 15.0093 31.4927 14.8555 31.7795 14.9341L31.797 14.9392ZM13.1944 14.0168C13.4684 14.1779 13.5599 14.5306 13.3989 14.8046C12.546 16.2554 11.7778 17.699 11.0944 19.1353C10.3193 20.7643 9.59192 22.5128 8.91225 24.3808C8.8071 24.6697 8.49406 24.824 8.20221 24.7341L8.18473 24.7284L8.02414 24.6729C2.75778 22.841 0.756945 20.8277 2.02165 18.6332C3.25858 16.4868 6.85447 14.9241 12.8093 13.945C12.9421 13.9232 13.0784 13.9486 13.1944 14.0168ZM30.1015 4.99376C31.3541 7.14343 30.9 11.0521 28.7392 16.7199C28.6917 16.8444 28.6024 16.9486 28.4867 17.0147C28.2161 17.1691 27.8731 17.08 27.7112 16.8165L27.7015 16.8002L27.6006 16.624C26.7917 15.2177 25.949 13.883 25.0723 12.6198C24.04 11.1322 22.879 9.62628 21.5895 8.10196C21.39 7.86614 21.4128 7.51612 21.6378 7.30795L21.6525 7.29486L21.7822 7.18319C26.0488 3.52743 28.8219 2.79762 30.1015 4.99376ZM12.101 3.68555C14.5719 3.68555 17.7174 6.03724 21.5373 10.7406C21.6217 10.8445 21.6673 10.9746 21.6661 11.1085C21.6634 11.4203 21.4131 11.6721 21.1035 11.6789L21.0855 11.679L20.8844 11.6775C19.2769 11.6688 17.7142 11.7249 16.1963 11.8457C14.4045 11.9883 12.5334 12.2324 10.5831 12.5781C10.2798 12.6318 9.98917 12.4374 9.92146 12.1391L9.91774 12.1214L9.88542 11.9535C8.837 6.44154 9.57553 3.68555 12.101 3.68555Z" fill="#FF4154"/>
<path d="M17.3897 13.543H22.3234C23.045 13.543 23.7114 13.9289 24.0705 14.5547L26.5478 18.8712C26.9042 19.4922 26.9042 20.2556 26.5478 20.8766L24.0705 25.1931C23.7114 25.8189 23.045 26.2048 22.3234 26.2048H17.3897C16.6682 26.2048 16.0017 25.8189 15.6426 25.1931L13.1653 20.8766C12.8089 20.2556 12.8089 19.4922 13.1653 18.8712L15.6426 14.5547C16.0017 13.9289 16.6682 13.543 17.3897 13.543ZM21.5715 14.8458C22.2934 14.8458 22.9601 15.2321 23.3191 15.8584L25.0466 18.8722C25.4022 19.4926 25.4022 20.2552 25.0466 20.8757L23.3191 23.8894C22.9601 24.5157 22.2934 24.902 21.5715 24.902H18.1416C17.4197 24.902 16.753 24.5157 16.394 23.8894L14.6665 20.8757C14.3109 20.2552 14.3109 19.4926 14.6665 18.8722L16.394 15.8584C16.753 15.2321 17.4197 14.8458 18.1416 14.8458H21.5715ZM20.761 16.2708H18.9521C18.2309 16.2708 17.5648 16.6563 17.2055 17.2816L16.2927 18.8704C15.9356 19.4918 15.9356 20.2561 16.2927 20.8775L17.2055 22.4662C17.5648 23.0915 18.2309 23.477 18.9521 23.477H20.761C21.4822 23.477 22.1483 23.0915 22.5076 22.4662L23.4205 20.8775C23.7775 20.2561 23.7775 19.4918 23.4205 18.8704L22.5076 17.2816C22.1483 16.6563 21.4822 16.2708 20.761 16.2708ZM19.9806 17.6347C20.7012 17.6347 21.367 18.0196 21.7264 18.6442L21.8559 18.869C22.2139 19.4911 22.2139 20.2567 21.8559 20.8788L21.7264 21.1036C21.367 21.7282 20.7012 22.1131 19.9806 22.1131H19.7325C19.0119 22.1131 18.3462 21.7282 17.9867 21.1036L17.8573 20.8788C17.4992 20.2567 17.4992 19.4911 17.8573 18.869L17.9867 18.6442C18.3462 18.0196 19.0119 17.6347 19.7325 17.6347H19.9806ZM19.8569 18.9782C19.5361 18.9782 19.2404 19.1489 19.0802 19.4261C18.9201 19.7032 18.9201 20.0447 19.0802 20.3218C19.2404 20.5989 19.5361 20.7696 19.8562 20.7696C20.177 20.7696 20.4728 20.5989 20.6329 20.3218C20.793 20.0447 20.793 19.7032 20.6329 19.4261C20.4728 19.1489 20.177 18.9782 19.8569 18.9782ZM12.5898 19.8739H14.2025Z" fill="#FFD94C"/>
</svg>
