<svg width="40" height="40" viewBox="0 0 40 40" fill="none" xmlns="http://www.w3.org/2000/svg">
<path d="M27.7157 27.5336C24.9032 33.2836 19.9782 37.1523 13.4626 38.4242C12.4636 38.669 11.438 38.7886 10.4095 38.7805C6.65949 38.7805 3.22199 37.218 1.55324 34.6586C-0.687383 31.2492 -1.44988 24.0211 5.93762 18.6742C6.08762 19.4898 6.39387 20.6086 6.59699 21.2711C5.14678 22.3485 3.95973 23.7407 3.12512 25.343C1.75012 28.043 1.90324 30.7398 3.53137 33.2336C4.65637 34.9148 6.43762 35.9367 8.72824 36.2492C11.5893 36.6114 14.4918 36.0647 17.0251 34.6867C20.997 32.5992 23.6439 30.1055 25.3751 26.6961C24.8856 26.1902 24.5958 25.5241 24.5595 24.8211C24.5333 24.0667 24.8075 23.3327 25.3219 22.7802C25.8363 22.2277 26.5489 21.9019 27.3032 21.8742H27.4095C28.1432 21.8705 28.8503 22.1491 29.3844 22.6522C29.9185 23.1553 30.2388 23.8445 30.2789 24.5771C30.3191 25.3098 30.076 26.0298 29.6001 26.5883C29.1241 27.1467 28.4517 27.5008 27.722 27.5773L27.7157 27.5336ZM36.6751 21.2211C40.4907 25.5461 40.5939 30.6367 39.1189 33.5898C37.7439 36.2867 34.1189 38.9867 29.2439 38.9867C26.9681 38.9403 24.7294 38.4019 22.6814 37.4086C23.397 36.8992 24.4126 36.0836 24.972 35.5742C26.5513 36.2584 28.251 36.6217 29.972 36.643C33.1282 36.643 35.5189 35.168 36.9439 32.4711C37.8595 30.6898 37.9126 28.6023 37.047 26.4648C35.9848 23.7754 34.0948 21.4935 31.6501 19.9492C28.4428 17.7872 24.6618 16.6346 20.7939 16.6398H19.8782C19.6647 17.1331 19.3174 17.5566 18.8756 17.8626C18.4337 18.1686 17.915 18.3447 17.3782 18.3711H17.2814C16.5389 18.362 15.8293 18.0638 15.3032 17.5398C14.777 17.0159 14.4759 16.3075 14.4637 15.5651C14.4515 14.8227 14.7292 14.1048 15.2378 13.5638C15.7464 13.0229 16.4459 12.7015 17.1876 12.668H17.2907C17.8076 12.6684 18.3144 12.8112 18.7555 13.0808C19.1965 13.3503 19.5547 13.7362 19.7907 14.1961H20.6064C27.1064 14.1961 32.8126 16.6898 36.6751 21.2211ZM10.8157 28.4086C10.7622 27.8897 10.8879 27.368 11.172 26.9305C8.32199 21.993 6.79699 15.7336 9.13762 9.21797C10.8157 4.32109 15.0407 1.01172 19.622 1.01172C24.5095 1.01172 29.6001 5.28984 30.2095 13.5336C29.447 13.2805 28.3345 12.9086 27.6657 12.7711C27.5001 10.0742 25.222 3.35547 19.8251 3.45547C17.8907 3.50859 15.0407 4.42422 13.5751 6.30547C11.7622 8.55116 10.7075 11.3136 10.5626 14.1961C10.2191 18.1485 11.1464 22.1074 13.2095 25.4961C13.3234 25.4545 13.4448 25.4374 13.5657 25.4461H13.6657C14.4216 25.4324 15.152 25.7196 15.6961 26.2444C16.2402 26.7692 16.5536 27.4887 16.5673 28.2445C16.581 29.0004 16.2938 29.7307 15.769 30.2749C15.2442 30.819 14.5247 31.1324 13.7689 31.1461H13.6657C12.9283 31.1435 12.2204 30.8564 11.6894 30.3447C11.1585 29.8329 10.8455 29.136 10.8157 28.3992V28.4086Z" fill="#764ABC"/>
</svg>
