<svg width="40" height="40" viewBox="0 0 40 40" fill="none" xmlns="http://www.w3.org/2000/svg">
<g clip-path="url(#clip0_272_3884)">
<path d="M8.51758 25.2241C8.51758 27.5147 6.64945 29.3856 4.35852 29.3856C2.06789 29.3856 0.197266 27.5147 0.197266 25.2241C0.197266 22.9334 2.0682 21.0625 4.35883 21.0625H8.51789L8.51758 25.2241ZM10.6141 25.2241C10.6141 22.9334 12.4851 21.0625 14.7757 21.0625C17.0663 21.0625 18.9373 22.9331 18.9373 25.2241V35.6413C18.9373 37.9319 17.0666 39.8028 14.7757 39.8028C12.4851 39.8028 10.6141 37.9319 10.6141 35.6413V25.2241Z" fill="#DE1C59"/>
<path d="M14.7757 8.51758C12.4851 8.51758 10.6141 6.64945 10.6141 4.35852C10.6141 2.06789 12.4851 0.197266 14.7757 0.197266C17.0663 0.197266 18.9373 2.0682 18.9373 4.35883V8.51789L14.7757 8.51758ZM14.7757 10.6141C17.0663 10.6141 18.9373 12.4851 18.9373 14.7757C18.9373 17.0663 17.0666 18.9373 14.7757 18.9373H4.35852C2.06789 18.9373 0.197266 17.0666 0.197266 14.7757C0.197266 12.4851 2.0682 10.6141 4.35883 10.6141H14.7757Z" fill="#35C5F0"/>
<path d="M31.4832 14.7757C31.4832 12.4851 33.3513 10.6141 35.6422 10.6141C37.9329 10.6141 39.8038 12.4851 39.8038 14.7757C39.8038 17.0663 37.9329 18.9373 35.6422 18.9373H31.4832V14.7757ZM29.3866 14.7757C29.3866 17.0663 27.5157 18.9373 25.225 18.9373C22.9344 18.9373 21.0635 17.0666 21.0635 14.7757V4.35852C21.0635 2.06789 22.9341 0.197266 25.225 0.197266C27.5157 0.197266 29.3866 2.0682 29.3866 4.35883V14.7757Z" fill="#2EB57D"/>
<path d="M25.225 31.4822C27.5157 31.4822 29.3866 33.3503 29.3866 35.6413C29.3866 37.9319 27.5157 39.8028 25.225 39.8028C22.9344 39.8028 21.0635 37.9319 21.0635 35.6413V31.4822H25.225ZM25.225 29.3856C22.9344 29.3856 21.0635 27.5147 21.0635 25.2241C21.0635 22.9334 22.9341 21.0625 25.225 21.0625H35.6422C37.9329 21.0625 39.8038 22.9331 39.8038 25.2241C39.8038 27.5147 37.9329 29.3856 35.6422 29.3856H25.225Z" fill="#EBB02E"/>
</g>
<defs>
<clipPath id="clip0_272_3884">
<rect width="40" height="40" fill="white"/>
</clipPath>
</defs>
</svg>
