<svg width="40" height="40" viewBox="0 0 40 40" fill="none" xmlns="http://www.w3.org/2000/svg">
<g clip-path="url(#clip0_272_3859)">
<path d="M19.9844 0C8.96719 0 0 8.96719 0 19.9844C0 31.0016 8.96719 39.9688 19.9844 39.9688C31.0016 39.9688 39.9688 31.0016 39.9688 19.9844C39.9688 8.96719 31.0019 0 19.9844 0ZM19.9844 3.33719C29.1981 3.33719 36.6319 10.7706 36.6319 19.9844C36.6319 29.1984 29.1981 36.6319 19.9844 36.6319C10.7706 36.6319 3.33687 29.1984 3.33687 19.9844C3.33687 10.7706 10.7706 3.33719 19.9844 3.33719Z" fill="#010101"/>
<path fill-rule="evenodd" clip-rule="evenodd" d="M15.1212 18.9735C19.4975 15.3985 23.7781 11.6991 28.2496 8.22852C25.9043 11.8326 23.4921 15.3888 21.1468 18.9926C19.1353 19.002 17.1234 19.002 15.1212 18.9735ZM18.8206 20.966C20.8418 20.966 22.8534 20.966 24.865 20.9948C20.4603 24.551 16.1987 28.2788 11.7178 31.7398C14.0631 28.1357 16.4753 24.5701 18.8206 20.966Z" fill="#010101"/>
</g>
<defs>
<clipPath id="clip0_272_3859">
<rect width="40" height="40" fill="white"/>
</clipPath>
</defs>
</svg>
