<svg width="40" height="40" viewBox="0 0 40 40" fill="none" xmlns="http://www.w3.org/2000/svg">
<path d="M33.5461 0.628863L31.3855 0.763551L31.5539 5.25636C31.5626 5.5048 31.2761 5.6498 31.0808 5.49574L29.6339 4.35511L27.9198 5.65574C27.8757 5.68926 27.8229 5.70951 27.7677 5.71415C27.7125 5.71878 27.6571 5.70759 27.608 5.68189C27.5589 5.65619 27.5181 5.61705 27.4904 5.56903C27.4628 5.52101 27.4493 5.46611 27.4517 5.41074L27.6445 0.9973L6.21077 2.33761C5.70091 2.36938 5.22367 2.59921 4.88093 2.97802C4.5382 3.35684 4.35714 3.85463 4.37639 4.36511L5.58264 36.502C5.60106 36.993 5.80346 37.4591 6.14966 37.8078C6.49585 38.1565 6.96052 38.3622 7.45139 38.3842L33.5801 39.5573C33.8443 39.569 34.108 39.5271 34.3555 39.4342C34.6031 39.3413 34.8292 39.1993 35.0205 39.0167C35.2117 38.8341 35.364 38.6146 35.4679 38.3715C35.5719 38.1284 35.6255 37.8667 35.6255 37.6023V2.58261C35.6256 2.31522 35.5709 2.05063 35.4647 1.80521C35.3586 1.55979 35.2032 1.33875 35.0083 1.15574C34.8135 0.972629 34.5833 0.831401 34.3318 0.740779C34.0803 0.650158 33.8129 0.612068 33.5461 0.628863ZM20.5898 7.2498C25.6861 7.2498 28.4692 9.97574 28.4692 15.162C27.7805 15.6973 22.6505 16.062 22.6505 15.3004C22.7586 12.3942 21.4576 12.267 20.7348 12.267C20.048 12.267 18.8914 12.4739 18.8914 14.0307C18.8914 17.8707 28.7945 17.6635 28.7945 25.4132C28.7945 29.7726 25.2523 32.1804 20.7348 32.1804C16.0723 32.1804 11.9983 30.2942 12.4583 23.7545C12.6389 22.9867 18.5661 23.1692 18.5661 23.7545C18.4942 26.4529 19.1083 27.2467 20.662 27.2467C21.8548 27.2467 22.3973 26.5895 22.3973 25.4823C22.3973 21.5382 12.6389 21.4001 12.6389 14.1695C12.6389 10.0179 15.4942 7.2498 20.5898 7.2498Z" fill="#FF4785"/>
</svg>
