<svg width="40" height="40" viewBox="0 0 40 40" fill="none" xmlns="http://www.w3.org/2000/svg">
<g clip-path="url(#clip0_272_3863)">
<path d="M20 39.0459C9.49781 39.0459 0.953125 30.5022 0.953125 19.9994C0.953438 9.49687 9.49781 0.953125 20.0003 0.953125C30.5028 0.953125 39.0472 9.4975 39.0472 20C39.0472 30.5022 30.5025 39.0456 20.0003 39.0456L20 39.0459Z" fill="#85EA2D"/>
<path d="M12.5938 13.5344C12.5319 14.2188 12.6163 14.9263 12.5709 15.6181C12.5169 16.3109 12.4322 16.9953 12.2934 17.6794C12.1013 18.6562 11.4934 19.3947 10.6559 20.01C12.2866 21.0712 12.4706 22.7169 12.5784 24.3859C12.6322 25.2859 12.6091 26.1938 12.7016 27.0853C12.7706 27.7775 13.0397 27.9547 13.7553 27.9772C14.0475 27.985 14.3472 27.9772 14.6859 27.9772V30.1153C12.5709 30.4766 10.8253 29.8772 10.3941 28.0853C10.2523 27.4269 10.165 26.758 10.1328 26.0853C10.0866 25.3706 10.1631 24.655 10.1097 23.9403C9.95594 21.9788 9.70187 21.3175 7.82594 21.225V18.7875C7.96375 18.7563 8.09469 18.7331 8.23281 18.7178C9.26344 18.6641 9.70188 18.3484 9.92469 17.3334C10.0316 16.7623 10.096 16.1841 10.1172 15.6034C10.1944 14.4881 10.1634 13.3503 10.3556 12.2428C10.6244 10.6509 11.6087 9.88156 13.2475 9.78906C13.7087 9.76594 14.1781 9.78906 14.7087 9.78906V11.9734C14.4856 11.9891 14.2931 12.0194 14.0934 12.0194C12.7628 11.9731 12.6937 12.4269 12.5938 13.5344ZM15.1547 18.5947H15.1237C14.3544 18.5563 13.6931 19.1559 13.6544 19.9253C13.6163 20.7019 14.2159 21.3638 14.9853 21.4016H15.0775C15.8388 21.4478 16.4922 20.8628 16.5387 20.1016V20.025C16.5544 19.2481 15.9316 18.6103 15.1547 18.5947ZM19.9766 18.5947C19.2309 18.5716 18.6078 19.1559 18.5847 19.8944C18.5847 19.9409 18.5847 19.9791 18.5922 20.025C18.5922 20.8638 19.1612 21.4019 20.0228 21.4019C20.8687 21.4019 21.3997 20.8481 21.3997 19.9791C21.3919 19.1409 20.83 18.5869 19.9766 18.5947ZM24.9144 18.5947C24.5367 18.5879 24.1716 18.7302 23.8981 18.9907C23.6246 19.2513 23.4647 19.609 23.4531 19.9866C23.4526 20.1725 23.4888 20.3568 23.5597 20.5287C23.6307 20.7006 23.7349 20.8568 23.8664 20.9883C23.9979 21.1198 24.1541 21.224 24.326 21.2949C24.4979 21.3659 24.6822 21.4021 24.8681 21.4016H24.8837C25.5912 21.5247 26.3066 20.8403 26.3528 20.0175C26.3909 19.2559 25.6994 18.5947 24.9144 18.5947ZM31.69 18.71C30.7978 18.6716 30.3513 18.3716 30.1287 17.5256C29.9906 16.984 29.9057 16.4301 29.8753 15.8719C29.8134 14.8413 29.8209 13.8031 29.7519 12.7725C29.5906 10.3269 27.8216 9.47344 25.2528 9.89594V12.0184C25.6603 12.0184 25.9756 12.0184 26.2909 12.0263C26.8372 12.0338 27.2525 12.2419 27.3062 12.8494C27.36 13.4031 27.36 13.9644 27.4137 14.5259C27.5219 15.6416 27.5831 16.7719 27.7753 17.8716C27.9447 18.7791 28.5678 19.4559 29.3441 20.0094C27.9831 20.9247 27.5828 22.2322 27.5138 23.7013C27.4756 24.7084 27.4525 25.7238 27.3988 26.7391C27.3525 27.6619 27.0297 27.9619 26.0987 27.985C25.8378 27.9925 25.5837 28.0156 25.2916 28.0312V30.2075C25.8378 30.2075 26.3375 30.2388 26.8372 30.2075C28.3906 30.1153 29.3291 29.3619 29.6372 27.8541C29.7675 27.0234 29.8441 26.1853 29.8675 25.3469C29.9209 24.5781 29.9137 23.8012 29.9906 23.04C30.1059 21.8478 30.6519 21.3559 31.8438 21.2788C31.9566 21.265 32.0676 21.2393 32.175 21.2022V18.7644C31.975 18.7413 31.8362 18.7178 31.69 18.71ZM20 1.90594C29.9928 1.90594 38.0938 10.0059 38.0938 19.9991C38.0938 29.9919 29.9928 38.0925 20 38.0925C10.0075 38.0925 1.90688 29.9919 1.90688 19.9988C1.90688 10.0069 10.0075 1.90594 20 1.90594ZM20 8.16329e-09C8.97187 -0.000312492 0 8.97156 0 19.9997C0 31.0272 8.97187 39.9991 20 39.9991C31.0278 39.9991 40 31.0272 40 19.9991C40 8.97094 31.0278 0.000312508 20 0.000312508V8.16329e-09Z" fill="#173647"/>
</g>
<defs>
<clipPath id="clip0_272_3863">
<rect width="40" height="40" fill="white"/>
</clipPath>
</defs>
</svg>
