<svg width="40" height="40" viewBox="0 0 40 40" fill="none" xmlns="http://www.w3.org/2000/svg">
<path d="M39.4781 10.643C39.4779 9.82114 39.3952 9.00141 39.2313 8.19609C39.0673 7.37169 38.7885 6.57435 38.4031 5.82734C38.0004 5.1038 37.4998 4.43921 36.9156 3.85234C36.3131 3.26278 35.6132 2.78175 34.8469 2.43047C34.0906 2.04913 33.2817 1.78266 32.4469 1.63984C31.6188 1.48047 30.7094 1.48047 29.8813 1.40234H9.45312C8.81589 1.41272 8.18008 1.46597 7.55 1.56172C6.92473 1.63533 6.31266 1.79518 5.73125 2.03672C5.56562 2.11484 5.31875 2.19609 5.15312 2.27422C4.60305 2.56908 4.08017 2.91209 3.59063 3.29922C3.425 3.45859 3.25937 3.53672 3.09375 3.69297C2.48471 4.25787 1.98102 4.92662 1.60625 5.66797C1.19698 6.40447 0.916886 7.20564 0.778125 8.03672C0.654975 8.8477 0.57258 9.66435 0.53125 10.4836V29.3555C0.531507 30.1773 0.614213 30.997 0.778125 31.8023C0.942119 32.6267 1.22087 33.4241 1.60625 34.1711C2.009 34.8946 2.50954 35.5592 3.09375 36.1461C3.6963 36.7357 4.39617 37.2167 5.1625 37.568C5.91877 37.9493 6.72766 38.2158 7.5625 38.3586C8.39062 38.518 9.3 38.518 10.1281 38.5961H29.8844C30.745 38.5955 31.6038 38.516 32.45 38.3586C33.2848 38.2158 34.0937 37.9493 34.85 37.568C35.6 37.1885 36.2957 36.7103 36.9188 36.1461C37.5278 35.5812 38.0315 34.9124 38.4062 34.1711C38.8155 33.4346 39.0956 32.6334 39.2344 31.8023C39.3575 30.9914 39.4399 30.1747 39.4813 29.3555V10.643H39.4781Z" fill="#F05138"/>
<path d="M26.5627 30.1555C23.0908 32.0711 18.3189 32.268 13.5158 30.3023C9.77088 28.7828 6.56891 26.1731 4.3252 22.8117C5.36792 23.6099 6.50711 24.2735 7.71582 24.7867C12.6752 27.0055 17.6314 26.8523 21.1221 24.7867C16.1533 21.143 11.9346 16.4055 8.79082 12.5367C8.17044 11.8829 7.61667 11.169 7.1377 10.4055C10.9377 13.7211 16.9814 17.9055 19.1314 19.0898C16.0617 15.9445 13.2407 12.5656 10.6939 8.98359C14.9274 13.0976 19.5858 16.7504 24.5908 19.8805C24.8127 19.9992 24.9846 20.0992 25.1221 20.193C25.2688 19.8348 25.395 19.4686 25.5002 19.0961C26.6596 15.068 25.3346 10.4898 22.4408 6.69922C29.1408 10.5648 33.1252 17.8273 31.4564 23.9086C31.4127 24.0742 31.3658 24.2211 31.3158 24.393L31.3752 24.4617C34.6846 28.4086 33.7752 32.5867 33.3596 31.8055C31.5627 28.4367 28.2408 29.4773 26.5627 30.1555Z" fill="#FEFEFE"/>
</svg>
