<svg width="40" height="40" viewBox="0 0 40 40" fill="none" xmlns="http://www.w3.org/2000/svg">
<g clip-path="url(#clip0_272_3778)">
<path d="M20.001 8C14.6675 8 11.3354 10.6656 10.001 15.9991C12.0004 13.3331 14.3344 12.3334 17.0004 13C18.5225 13.3794 19.6104 14.4831 20.815 15.7063C22.7757 17.6959 25.045 19.9994 30.001 19.9994C35.3341 19.9994 38.6666 17.3334 40.001 11.9987C38.0013 14.6662 35.6675 15.6659 33.0013 14.9994C31.4794 14.6197 30.3929 13.5163 29.1866 12.2931C27.2272 10.3034 24.9585 8 20.001 8ZM10.001 19.9994C4.66785 19.9994 1.33535 22.6653 0.000976562 28C2.00035 25.3325 4.3341 24.3328 7.00035 24.9994C8.52254 25.3791 9.61035 26.4825 10.815 27.7056C12.7757 29.6953 15.045 31.9988 20.001 31.9988C25.3341 31.9988 28.6666 29.3331 30.001 23.9997C28.0013 26.6656 25.6675 27.6653 23.0013 26.9988C21.4794 26.6194 20.3929 25.5156 19.1866 24.2925C17.2272 22.3028 14.9585 19.9994 10.001 19.9994Z" fill="#38BDF8"/>
</g>
<defs>
<clipPath id="clip0_272_3778">
<rect width="40" height="40" fill="white"/>
</clipPath>
</defs>
</svg>
